<svg xmlns="http://www.w3.org/2000/svg" width="900" height="700" viewBox="0 0 900 700" role="img" aria-label="Interlinked words diagram showing two columns of the sentence The teacher taught the student with a book.">
  <rect x="0" y="0" width="900" height="700" fill="#f3f3f3"/> <line x1="315" y1="60" x2="585" y2="60" stroke="#595a60" stroke-width="1.7" stroke-linecap="round" opacity="0.88"/> <line x1="315" y1="60" x2="585" y2="128" stroke="#595a60" stroke-width="1.7" stroke-linecap="round" opacity="0.88"/> <line x1="315" y1="60" x2="585" y2="196" stroke="#595a60" stroke-width="1.7" stroke-linecap="round" opacity="0.88"/> <line x1="315" y1="60" x2="585" y2="264" stroke="#595a60" stroke-width="1.7" stroke-linecap="round" opacity="0.88"/> <line x1="315" y1="60" x2="585" y2="332" stroke="#595a60" stroke-width="1.7" stroke-linecap="round" opacity="0.88"/> <line x1="315" y1="60" x2="585" y2="400" stroke="#595a60" stroke-width="1.7" stroke-linecap="round" opacity="0.88"/> <line x1="315" y1="60" x2="585" y2="468" stroke="#595a60" stroke-width="1.7" stroke-linecap="round" opacity="0.88"/> <line x1="315" y1="60" x2="585" y2="536" stroke="#595a60" stroke-width="1.7" stroke-linecap="round" opacity="0.88"/> <line x1="315" y1="60" x2="585" y2="604" stroke="#595a60" stroke-width="1.7" stroke-linecap="round" opacity="0.88"/> <line x1="315" y1="128" x2="585" y2="60" stroke="#595a60" stroke-width="1.7" stroke-linecap="round" opacity="0.88"/> <line x1="315" y1="128" x2="585" y2="128" stroke="#595a60" stroke-width="1.7" stroke-linecap="round" opacity="0.88"/> <line x1="315" y1="128" x2="585" y2="196" stroke="#595a60" stroke-width="1.7" stroke-linecap="round" opacity="0.88"/> <line x1="315" y1="128" x2="585" y2="264" stroke="#595a60" stroke-width="1.7" stroke-linecap="round" opacity="0.88"/> <line x1="315" y1="128" x2="585" y2="332" stroke="#595a60" stroke-width="1.7" stroke-linecap="round" opacity="0.88"/> <line x1="315" y1="128" x2="585" y2="400" stroke="#595a60" stroke-width="1.7" stroke-linecap="round" opacity="0.88"/> <line x1="315" y1="128" x2="585" y2="468" stroke="#595a60" stroke-width="1.7" stroke-linecap="round" opacity="0.88"/> <line x1="315" y1="128" x2="585" y2="536" stroke="#595a60" stroke-width="1.7" stroke-linecap="round" opacity="0.88"/> <line x1="315" y1="128" x2="585" y2="604" stroke="#595a60" stroke-width="1.7" stroke-linecap="round" opacity="0.88"/> <line x1="315" y1="196" x2="585" y2="60" stroke="#595a60" stroke-width="1.7" stroke-linecap="round" opacity="0.88"/> <line x1="315" y1="196" x2="585" y2="128" stroke="#595a60" stroke-width="1.7" stroke-linecap="round" opacity="0.88"/> <line x1="315" y1="196" x2="585" y2="196" stroke="#595a60" stroke-width="1.7" stroke-linecap="round" opacity="0.88"/> <line x1="315" y1="196" x2="585" y2="264" stroke="#595a60" stroke-width="1.7" stroke-linecap="round" opacity="0.88"/> <line x1="315" y1="196" x2="585" y2="332" stroke="#595a60" stroke-width="1.7" stroke-linecap="round" opacity="0.88"/> <line x1="315" y1="196" x2="585" y2="400" stroke="#595a60" stroke-width="1.7" stroke-linecap="round" opacity="0.88"/> <line x1="315" y1="196" x2="585" y2="468" stroke="#595a60" stroke-width="1.7" stroke-linecap="round" opacity="0.88"/> <line x1="315" y1="196" x2="585" y2="536" stroke="#595a60" stroke-width="1.7" stroke-linecap="round" opacity="0.88"/> <line x1="315" y1="196" x2="585" y2="604" stroke="#595a60" stroke-width="1.7" stroke-linecap="round" opacity="0.88"/> <line x1="315" y1="264" x2="585" y2="60" stroke="#595a60" stroke-width="1.7" stroke-linecap="round" opacity="0.88"/> <line x1="315" y1="264" x2="585" y2="128" stroke="#595a60" stroke-width="1.7" stroke-linecap="round" opacity="0.88"/> <line x1="315" y1="264" x2="585" y2="196" stroke="#595a60" stroke-width="1.7" stroke-linecap="round" opacity="0.88"/> <line x1="315" y1="264" x2="585" y2="264" stroke="#595a60" stroke-width="1.7" stroke-linecap="round" opacity="0.88"/> <line x1="315" y1="264" x2="585" y2="332" stroke="#595a60" stroke-width="1.7" stroke-linecap="round" opacity="0.88"/> <line x1="315" y1="264" x2="585" y2="400" stroke="#595a60" stroke-width="1.7" stroke-linecap="round" opacity="0.88"/> <line x1="315" y1="264" x2="585" y2="468" stroke="#595a60" stroke-width="1.7" stroke-linecap="round" opacity="0.88"/> <line x1="315" y1="264" x2="585" y2="536" stroke="#595a60" stroke-width="1.7" stroke-linecap="round" opacity="0.88"/> <line x1="315" y1="264" x2="585" y2="604" stroke="#595a60" stroke-width="1.7" stroke-linecap="round" opacity="0.88"/> <line x1="315" y1="332" x2="585" y2="60" stroke="#595a60" stroke-width="1.7" stroke-linecap="round" opacity="0.88"/> <line x1="315" y1="332" x2="585" y2="128" stroke="#595a60" stroke-width="1.7" stroke-linecap="round" opacity="0.88"/> <line x1="315" y1="332" x2="585" y2="196" stroke="#595a60" stroke-width="1.7" stroke-linecap="round" opacity="0.88"/> <line x1="315" y1="332" x2="585" y2="264" stroke="#595a60" stroke-width="1.7" stroke-linecap="round" opacity="0.88"/> <line x1="315" y1="332" x2="585" y2="332" stroke="#595a60" stroke-width="1.7" stroke-linecap="round" opacity="0.88"/> <line x1="315" y1="332" x2="585" y2="400" stroke="#595a60" stroke-width="1.7" stroke-linecap="round" opacity="0.88"/> <line x1="315" y1="332" x2="585" y2="468" stroke="#595a60" stroke-width="1.7" stroke-linecap="round" opacity="0.88"/> <line x1="315" y1="332" x2="585" y2="536" stroke="#595a60" stroke-width="1.7" stroke-linecap="round" opacity="0.88"/> <line x1="315" y1="332" x2="585" y2="604" stroke="#595a60" stroke-width="1.7" stroke-linecap="round" opacity="0.88"/> <line x1="315" y1="400" x2="585" y2="60" stroke="#595a60" stroke-width="1.7" stroke-linecap="round" opacity="0.88"/> <line x1="315" y1="400" x2="585" y2="128" stroke="#595a60" stroke-width="1.7" stroke-linecap="round" opacity="0.88"/> <line x1="315" y1="400" x2="585" y2="196" stroke="#595a60" stroke-width="1.7" stroke-linecap="round" opacity="0.88"/> <line x1="315" y1="400" x2="585" y2="264" stroke="#595a60" stroke-width="1.7" stroke-linecap="round" opacity="0.88"/> <line x1="315" y1="400" x2="585" y2="332" stroke="#595a60" stroke-width="1.7" stroke-linecap="round" opacity="0.88"/> <line x1="315" y1="400" x2="585" y2="400" stroke="#595a60" stroke-width="1.7" stroke-linecap="round" opacity="0.88"/> <line x1="315" y1="400" x2="585" y2="468" stroke="#595a60" stroke-width="1.7" stroke-linecap="round" opacity="0.88"/> <line x1="315" y1="400" x2="585" y2="536" stroke="#595a60" stroke-width="1.7" stroke-linecap="round" opacity="0.88"/> <line x1="315" y1="400" x2="585" y2="604" stroke="#595a60" stroke-width="1.7" stroke-linecap="round" opacity="0.88"/> <line x1="315" y1="468" x2="585" y2="60" stroke="#595a60" stroke-width="1.7" stroke-linecap="round" opacity="0.88"/> <line x1="315" y1="468" x2="585" y2="128" stroke="#595a60" stroke-width="1.7" stroke-linecap="round" opacity="0.88"/> <line x1="315" y1="468" x2="585" y2="196" stroke="#595a60" stroke-width="1.7" stroke-linecap="round" opacity="0.88"/> <line x1="315" y1="468" x2="585" y2="264" stroke="#595a60" stroke-width="1.7" stroke-linecap="round" opacity="0.88"/> <line x1="315" y1="468" x2="585" y2="332" stroke="#595a60" stroke-width="1.7" stroke-linecap="round" opacity="0.88"/> <line x1="315" y1="468" x2="585" y2="400" stroke="#595a60" stroke-width="1.7" stroke-linecap="round" opacity="0.88"/> <line x1="315" y1="468" x2="585" y2="468" stroke="#595a60" stroke-width="1.7" stroke-linecap="round" opacity="0.88"/> <line x1="315" y1="468" x2="585" y2="536" stroke="#595a60" stroke-width="1.7" stroke-linecap="round" opacity="0.88"/> <line x1="315" y1="468" x2="585" y2="604" stroke="#595a60" stroke-width="1.7" stroke-linecap="round" opacity="0.88"/> <line x1="315" y1="536" x2="585" y2="60" stroke="#595a60" stroke-width="1.7" stroke-linecap="round" opacity="0.88"/> <line x1="315" y1="536" x2="585" y2="128" stroke="#595a60" stroke-width="1.7" stroke-linecap="round" opacity="0.88"/> <line x1="315" y1="536" x2="585" y2="196" stroke="#595a60" stroke-width="1.7" stroke-linecap="round" opacity="0.88"/> <line x1="315" y1="536" x2="585" y2="264" stroke="#595a60" stroke-width="1.7" stroke-linecap="round" opacity="0.88"/> <line x1="315" y1="536" x2="585" y2="332" stroke="#595a60" stroke-width="1.7" stroke-linecap="round" opacity="0.88"/> <line x1="315" y1="536" x2="585" y2="400" stroke="#595a60" stroke-width="1.7" stroke-linecap="round" opacity="0.88"/> <line x1="315" y1="536" x2="585" y2="468" stroke="#595a60" stroke-width="1.7" stroke-linecap="round" opacity="0.88"/> <line x1="315" y1="536" x2="585" y2="536" stroke="#595a60" stroke-width="1.7" stroke-linecap="round" opacity="0.88"/> <line x1="315" y1="536" x2="585" y2="604" stroke="#595a60" stroke-width="1.7" stroke-linecap="round" opacity="0.88"/> <line x1="315" y1="604" x2="585" y2="60" stroke="#595a60" stroke-width="1.7" stroke-linecap="round" opacity="0.88"/> <line x1="315" y1="604" x2="585" y2="128" stroke="#595a60" stroke-width="1.7" stroke-linecap="round" opacity="0.88"/> <line x1="315" y1="604" x2="585" y2="196" stroke="#595a60" stroke-width="1.7" stroke-linecap="round" opacity="0.88"/> <line x1="315" y1="604" x2="585" y2="264" stroke="#595a60" stroke-width="1.7" stroke-linecap="round" opacity="0.88"/> <line x1="315" y1="604" x2="585" y2="332" stroke="#595a60" stroke-width="1.7" stroke-linecap="round" opacity="0.88"/> <line x1="315" y1="604" x2="585" y2="400" stroke="#595a60" stroke-width="1.7" stroke-linecap="round" opacity="0.88"/> <line x1="315" y1="604" x2="585" y2="468" stroke="#595a60" stroke-width="1.7" stroke-linecap="round" opacity="0.88"/> <line x1="315" y1="604" x2="585" y2="536" stroke="#595a60" stroke-width="1.7" stroke-linecap="round" opacity="0.88"/> <line x1="315" y1="604" x2="585" y2="604" stroke="#595a60" stroke-width="1.7" stroke-linecap="round" opacity="0.88"/> <line x1="315" y1="128" x2="585" y2="332" stroke="#f0a53a" stroke-width="7" stroke-linecap="round" opacity="0.98"/> <line x1="315" y1="264" x2="585" y2="400" stroke="#f0a53a" stroke-width="7" stroke-linecap="round" opacity="0.98"/> <line x1="315" y1="332" x2="585" y2="536" stroke="#f0a53a" stroke-width="7" stroke-linecap="round" opacity="0.98"/> <line x1="315" y1="468" x2="585" y2="332" stroke="#f0a53a" stroke-width="7" stroke-linecap="round" opacity="0.98"/> <line x1="315" y1="536" x2="585" y2="128" stroke="#f0a53a" stroke-width="7" stroke-linecap="round" opacity="0.98"/> <text x="170" y="60" fill="#111111" font-family="Arial, Helvetica, sans-serif" font-size="34" text-anchor="middle" dominant-baseline="middle">The</text> <text x="730" y="60" fill="#111111" font-family="Arial, Helvetica, sans-serif" font-size="34" text-anchor="middle" dominant-baseline="middle">The</text> <text x="170" y="128" fill="#111111" font-family="Arial, Helvetica, sans-serif" font-size="34" text-anchor="middle" dominant-baseline="middle">teacher</text> <text x="730" y="128" fill="#111111" font-family="Arial, Helvetica, sans-serif" font-size="34" text-anchor="middle" dominant-baseline="middle">teacher</text> <text x="170" y="196" fill="#111111" font-family="Arial, Helvetica, sans-serif" font-size="34" text-anchor="middle" dominant-baseline="middle">taught</text> <text x="730" y="196" fill="#111111" font-family="Arial, Helvetica, sans-serif" font-size="34" text-anchor="middle" dominant-baseline="middle">taught</text> <text x="170" y="264" fill="#111111" font-family="Arial, Helvetica, sans-serif" font-size="34" text-anchor="middle" dominant-baseline="middle">the</text> <text x="730" y="264" fill="#111111" font-family="Arial, Helvetica, sans-serif" font-size="34" text-anchor="middle" dominant-baseline="middle">the</text> <text x="170" y="332" fill="#111111" font-family="Arial, Helvetica, sans-serif" font-size="34" text-anchor="middle" dominant-baseline="middle">student</text> <text x="730" y="332" fill="#111111" font-family="Arial, Helvetica, sans-serif" font-size="34" text-anchor="middle" dominant-baseline="middle">student</text> <text x="170" y="400" fill="#111111" font-family="Arial, Helvetica, sans-serif" font-size="34" text-anchor="middle" dominant-baseline="middle">with</text> <text x="730" y="400" fill="#111111" font-family="Arial, Helvetica, sans-serif" font-size="34" text-anchor="middle" dominant-baseline="middle">with</text> <text x="170" y="468" fill="#111111" font-family="Arial, Helvetica, sans-serif" font-size="34" text-anchor="middle" dominant-baseline="middle">a</text> <text x="730" y="468" fill="#111111" font-family="Arial, Helvetica, sans-serif" font-size="34" text-anchor="middle" dominant-baseline="middle">a</text> <text x="170" y="536" fill="#111111" font-family="Arial, Helvetica, sans-serif" font-size="34" text-anchor="middle" dominant-baseline="middle">book</text> <text x="730" y="536" fill="#111111" font-family="Arial, Helvetica, sans-serif" font-size="34" text-anchor="middle" dominant-baseline="middle">book</text> <text x="170" y="604" fill="#111111" font-family="Arial, Helvetica, sans-serif" font-size="34" text-anchor="middle" dominant-baseline="middle">.</text> <text x="730" y="604" fill="#111111" font-family="Arial, Helvetica, sans-serif" font-size="34" text-anchor="middle" dominant-baseline="middle">.</text>
</svg>
