<?xml version="1.0" encoding="utf-8"?>
<!-- Generator: Adobe Illustrator 21.0.0, SVG Export Plug-In . SVG Version: 6.00 Build 0)  -->
<svg version="1.1" xmlns="http://www.w3.org/2000/svg" xmlns:xlink="http://www.w3.org/1999/xlink" x="0px" y="0px"
	 viewBox="0 0 1920 1080" style="enable-background:new 0 0 1920 1080;" xml:space="preserve">
<style type="text/css">
	.st0{display:none;}
	.st1{display:inline;}
	.st2{fill:#2A76DD;}
	.st3{fill:#FFFFFF;}
	.st4{opacity:0.21;}
	.st5{opacity:0.19;}
	.st6{opacity:0.17;}
</style>
<g id="Layer_1" class="st0">
	<g class="st1">
		<rect class="st2" width="1920" height="1080"/>
	</g>
	<g class="st1">
		<g>
			<g>
				<path class="st3" d="M1326.9,774.9c-6.9,28.6-40.3,50.3-74.2,48.2l-16.2-1c-33.9-2.1-85.3,15.7-114.2,31.2l-75.3,40.2
					c-28.9,15.4-49.4,4.3-45.6-24.8l0.1-1.1c3.8-29.1-20.8-61.6-54.7-63.7l-281.1-17.6c-33.9-2.1-64.4-27.7-67.7-56.8L550.8,321
					c-3.3-29.1,21.8-53.9,55.8-55.1l770.7-26.9c34-1.2,56.1,21.3,49.2,49.9L1326.9,774.9z"/>
			</g>
			<g class="st4">
				<path class="st3" d="M1365.1,795.7c-0.4,0-0.7,0-1.1-0.1c-3-0.4-5-2.8-4.6-5.3l77.1-430.9c0.4-2.6,3.2-4.3,6.2-3.9
					c3,0.4,5,2.8,4.5,5.3l-77.1,430.9C1369.8,794,1367.6,795.6,1365.1,795.7z"/>
			</g>
			<g>
				<path class="st3" d="M633.5,234.2c-2.9,0-5.3-1.9-5.4-4.4c-0.2-2.6,2.1-4.8,5.1-4.9l594-28.1c3.1,0,5.6,1.8,5.7,4.4
					c0.2,2.6-2.1,4.8-5.1,4.9l-594,28.1C633.7,234.2,633.6,234.2,633.5,234.2z"/>
			</g>
			<g>
				<g>
					<polygon class="st3" points="492,498 534.2,633.6 376.5,597.3 					"/>
				</g>
				<g class="st5">
					<polygon class="st3" points="483.7,686.5 534.2,738.3 456.8,750.1 					"/>
				</g>
			</g>
			<g class="st6">
				<ellipse class="st3" cx="1288.1" cy="193.1" rx="16.4" ry="14.1"/>
			</g>
			<g class="st6">
				<ellipse class="st3" cx="1353.5" cy="193.1" rx="16.4" ry="14.1"/>
			</g>
		</g>
		<g>
			<path class="st2" d="M665.6,321.1c9.1,2.8,15.4,11.1,15.4,21c0,11.9-9.9,21.8-22.2,21.8c-11.9,0-21.8-9.9-21.8-21.8
				c0-5.9,2.4-11.1,4.4-15l19-36h12.7L665.6,321.1z M726.5,321.1c9.1,2.8,15.4,11.1,15.4,21c0,11.9-9.9,21.8-22.2,21.8
				c-11.9,0-21.8-9.9-21.8-21.8c0-5.9,2.4-11.1,4.4-15l19-36H734L726.5,321.1z"/>
		</g>
		<g>
			<path class="st2" d="M1132.2,746c-9.1-2.8-15.4-11.1-15.4-21c0-11.9,9.9-21.8,22.2-21.8c11.9,0,21.8,9.9,21.8,21.8
				c0,5.9-2.4,11.1-4.4,15l-19,36h-12.7L1132.2,746z M1193.1,746c-9.1-2.8-15.4-11.1-15.4-21c0-11.9,9.9-21.8,22.2-21.8
				c11.9,0,21.8,9.9,21.8,21.8c0,5.9-2.4,11.1-4.4,15l-19,36h-12.7L1193.1,746z"/>
		</g>
	</g>
</g>
<g id="Layer_2">
	<g>
		<rect class="st2" width="1920" height="1080"/>
	</g>
	<path class="st3" d="M1338,859H581c-27.6,0-50-22.4-50-50V272c0-27.6,22.4-50,50-50h757c27.6,0,50,22.4,50,50v537
		C1388,836.6,1365.6,859,1338,859z"/>
	<g>
		<path d="M542,198.7c-4.5,4-8.7,8-12.6,12c-3.9,4-7.4,8.3-10.3,12.6c-3,4.4-5.3,8.9-7,13.5c-1.7,4.6-2.6,9.5-2.6,14.6
			c0,1.8,0.1,3.4,0.3,4.8c0.2,1.4,0.4,3,0.7,4.8l1-0.2c2.2-4.4,5.1-7.6,8.7-9.6c3.6-2.1,7.3-3.1,11.2-3.1c3,0,5.9,0.6,8.8,1.7
			c2.9,1.2,5.5,2.8,7.7,5c2.2,2.2,4.1,4.8,5.5,8c1.4,3.1,2.1,6.7,2.1,10.7c0,3.3-0.6,6.5-1.7,9.5c-1.2,3-2.8,5.6-5,7.8
			c-2.2,2.2-4.8,3.9-8,5.2c-3.1,1.3-6.8,1.9-10.9,1.9c-4.9,0-9.6-0.9-14.1-2.8c-4.5-1.9-8.5-4.6-11.9-8.2c-3.5-3.6-6.2-8-8.3-13.3
			c-2.1-5.3-3.1-11.3-3.1-18.1c0-11.7,3.3-23.2,9.9-34.6c6.6-11.4,16.5-22.4,29.8-33.2c2.2,1.4,4.1,3,5.7,4.8
			C539.3,194.6,540.7,196.6,542,198.7z"/>
		<path d="M613.7,198.7c-4.5,4-8.7,8-12.6,12c-3.9,4-7.4,8.3-10.3,12.6c-3,4.4-5.3,8.9-7,13.5c-1.7,4.6-2.6,9.5-2.6,14.6
			c0,1.8,0.1,3.4,0.3,4.8c0.2,1.4,0.4,3,0.7,4.8l1-0.2c2.2-4.4,5.1-7.6,8.7-9.6c3.6-2.1,7.3-3.1,11.2-3.1c3,0,5.9,0.6,8.8,1.7
			c2.9,1.2,5.5,2.8,7.7,5c2.2,2.2,4.1,4.8,5.5,8c1.4,3.1,2.1,6.7,2.1,10.7c0,3.3-0.6,6.5-1.7,9.5c-1.2,3-2.8,5.6-5,7.8
			c-2.2,2.2-4.8,3.9-8,5.2c-3.1,1.3-6.8,1.9-10.9,1.9c-4.9,0-9.6-0.9-14.1-2.8c-4.5-1.9-8.5-4.6-11.9-8.2c-3.5-3.6-6.2-8-8.3-13.3
			c-2.1-5.3-3.1-11.3-3.1-18.1c0-11.7,3.3-23.2,9.9-34.6c6.6-11.4,16.5-22.4,29.8-33.2c2.2,1.4,4.1,3,5.7,4.8
			C611,194.6,612.4,196.6,613.7,198.7z"/>
	</g>
	<g>
		<path d="M1357.3,894.3c4.5-4,8.7-8,12.6-12c3.9-4,7.4-8.3,10.3-12.6c3-4.4,5.3-8.9,7-13.5c1.7-4.6,2.6-9.5,2.6-14.6
			c0-1.8-0.1-3.4-0.3-4.8c-0.2-1.4-0.4-3-0.7-4.8l-1,0.2c-2.2,4.4-5.1,7.6-8.7,9.6c-3.6,2.1-7.3,3.1-11.2,3.1c-3,0-5.9-0.6-8.8-1.7
			c-2.9-1.2-5.5-2.8-7.7-5c-2.2-2.2-4.1-4.8-5.5-8c-1.4-3.1-2.1-6.7-2.1-10.7c0-3.3,0.6-6.5,1.7-9.5c1.2-3,2.8-5.6,5-7.8
			c2.2-2.2,4.8-3.9,8-5.2c3.1-1.3,6.8-1.9,10.9-1.9c4.9,0,9.6,0.9,14.1,2.8c4.5,1.9,8.5,4.6,11.9,8.2c3.5,3.6,6.2,8,8.3,13.3
			c2.1,5.3,3.1,11.3,3.1,18.1c0,11.7-3.3,23.2-9.9,34.6c-6.6,11.4-16.5,22.4-29.8,33.2c-2.2-1.4-4.1-3-5.7-4.8
			C1360,898.5,1358.6,896.5,1357.3,894.3z"/>
		<path d="M1285.6,894.3c4.5-4,8.7-8,12.6-12c3.9-4,7.4-8.3,10.3-12.6c3-4.4,5.3-8.9,7-13.5c1.7-4.6,2.6-9.5,2.6-14.6
			c0-1.8-0.1-3.4-0.3-4.8c-0.2-1.4-0.4-3-0.7-4.8l-1,0.2c-2.2,4.4-5.1,7.6-8.7,9.6c-3.6,2.1-7.3,3.1-11.2,3.1c-3,0-5.9-0.6-8.8-1.7
			c-2.9-1.2-5.5-2.8-7.7-5c-2.2-2.2-4.1-4.8-5.5-8c-1.4-3.1-2.1-6.7-2.1-10.7c0-3.3,0.6-6.5,1.7-9.5c1.2-3,2.8-5.6,5-7.8
			c2.2-2.2,4.8-3.9,8-5.2c3.1-1.3,6.8-1.9,10.9-1.9c4.9,0,9.6,0.9,14.1,2.8c4.5,1.9,8.5,4.6,11.9,8.2c3.5,3.6,6.2,8,8.3,13.3
			c2.1,5.3,3.1,11.3,3.1,18.1c0,11.7-3.3,23.2-9.9,34.6c-6.6,11.4-16.5,22.4-29.8,33.2c-2.2-1.4-4.1-3-5.7-4.8
			C1288.3,898.5,1286.9,896.5,1285.6,894.3z"/>
	</g>
</g>
</svg>
