<?xml version="1.0" encoding="utf-8"?>
<!-- Generator: Adobe Illustrator 21.0.0, SVG Export Plug-In . SVG Version: 6.00 Build 0)  -->
<svg version="1.1" xmlns="http://www.w3.org/2000/svg" xmlns:xlink="http://www.w3.org/1999/xlink" x="0px" y="0px"
	 viewBox="0 0 1000 1000" style="enable-background:new 0 0 1000 1000;" xml:space="preserve">
<style type="text/css">
	.st2{fill:black;}
</style>

<g id="columns">
	<g>
		<g>
			<circle class="st2" cx="119.5" cy="144" r="35"/>
		</g>
		<g>
			<circle class="st2" cx="119.5" cy="288" r="35"/>
		</g>
		<g>
			<circle class="st2" cx="119.5" cy="432" r="35"/>
		</g>
		<g>
			<circle class="st2" cx="119.5" cy="576" r="35"/>
		</g>
		<g>
			<circle class="st2" cx="119.5" cy="720" r="35"/>
		</g>
		<g>
			<circle class="st2" cx="119.5" cy="864" r="35"/>
		</g>
	</g>
	<g>
		<g>
			<circle class="st2" cx="309.8" cy="144" r="35"/>
		</g>
		<g>
			<circle class="st2" cx="309.8" cy="288" r="35"/>
		</g>
		<g>
			<circle class="st2" cx="309.8" cy="432" r="35"/>
		</g>
		<g>
			<circle class="st2" cx="309.8" cy="576" r="35"/>
		</g>
		<g>
			<circle class="st2" cx="309.8" cy="720" r="35"/>
		</g>
		<g>
			<circle class="st2" cx="309.8" cy="864" r="35"/>
		</g>
	</g>
	<g>
		<g>
			<circle class="st2" cx="500" cy="144" r="35"/>
		</g>
		<g>
			<circle class="st2" cx="500" cy="288" r="35"/>
		</g>
		<g>
			<circle class="st2" cx="500" cy="432" r="35"/>
		</g>
		<g>
			<circle class="st2" cx="500" cy="576" r="35"/>
		</g>
		<g>
			<circle class="st2" cx="500" cy="720" r="35"/>
		</g>
		<g>
			<circle class="st2" cx="500" cy="864" r="35"/>
		</g>
	</g>
	<g>
		<g>
			<circle class="st2" cx="690.3" cy="144" r="35"/>
		</g>
		<g>
			<circle class="st2" cx="690.3" cy="288" r="35"/>
		</g>
		<g>
			<circle class="st2" cx="690.3" cy="432" r="35"/>
		</g>
		<g>
			<circle class="st2" cx="690.3" cy="576" r="35"/>
		</g>
		<g>
			<circle class="st2" cx="690.3" cy="720" r="35"/>
		</g>
		<g>
			<circle class="st2" cx="690.3" cy="864" r="35"/>
		</g>
	</g>
	<g>
		<g>
			<circle class="st2" cx="880.5" cy="144" r="35"/>
		</g>
		<g>
			<circle class="st2" cx="880.5" cy="288" r="35"/>
		</g>
		<g>
			<circle class="st2" cx="880.5" cy="432" r="35"/>
		</g>
		<g>
			<circle class="st2" cx="880.5" cy="576" r="35"/>
		</g>
		<g>
			<circle class="st2" cx="880.5" cy="720" r="35"/>
		</g>
		<g>
			<circle class="st2" cx="880.5" cy="864" r="35"/>
		</g>
	</g>
</g>

</svg>
