<?xml version="1.0" encoding="utf-8"?>
<!-- Generator: Adobe Illustrator 21.0.0, SVG Export Plug-In . SVG Version: 6.00 Build 0)  -->
<svg version="1.1" id="Layer_1" xmlns="http://www.w3.org/2000/svg" xmlns:xlink="http://www.w3.org/1999/xlink" x="0px" y="0px"
	 viewBox="0 0 946.2 394" style="enable-background:new 0 0 946.2 394;" xml:space="preserve">
<style type="text/css">
	.st0{fill:#666666;}
	.st1{fill:#B3B3B3;}
</style>
<path class="st0" d="M677.6,301.1c-1,0.5-1.9,0.9-2.7,1.2c-6.9,2.9-14.3,0.1-17.2-6.8c-0.9-2.1-2-2.8-4.2-2.7
	c-5.2,0.1-10.4,0.1-15.6,0c-1.6,0-2.8,0.2-3.4,2c-2.2,6.6-9.7,10.6-17.4,7.6c-5.7-2.2-10.1-9.7-6.8-17.6c0.1-0.3,0.2-0.6,0.4-1.3
	c-9.1-8.2-18.4-16.5-27.7-24.9c-4,2.2-8.1,3-12.4,1.6c-2.8-0.9-4.9-2.7-6.5-5.1c-3.3-5-2.6-12.2,1.5-16.5c4-4.2,11.3-5,16.5-1.9
	c5.5,3.4,7.2,9.6,4.6,17.6c0.4,0.5,0.8,1.1,1.3,1.5c8.3,7.5,16.6,14.9,24.9,22.4c1.2,1.1,2.2,1.1,3.6,0.5c7.7-3.4,14.6-0.7,18.1,6.9
	c0.7,1.4,1.4,2.1,3,2.1c5.6-0.1,11.3-0.1,16.9,0c1.7,0,2.6-0.5,3.3-2.2c3-6.9,10.2-10,17-7.3c6.5,2.5,9.6,9.7,7.2,16.8
	c-0.5,1.5-0.4,2.4,0.8,3.5c8.1,7.2,16.2,14.4,24.2,21.7c1.5,1.3,2.6,1.8,4.7,0.9c2.2-1,4.8-1.2,7.7-1.8c0.1-0.3,0.5-1,0.8-1.7
	c12.2-32.7,24.3-65.4,36.5-98.1c0.7-1.9,0.6-3.1-1-4.6c-4.9-4.6-5.6-11.6-1.8-17.1c3.4-5,10.4-7.1,16.1-4.3c2.1,1,3.3,0.6,4.9-0.9
	c7.6-6.9,15.3-13.8,23-20.7c0.8-0.8,1.7-1.5,2.4-2.1c-2.2-9.5-0.9-14.5,4.4-17.9c4.7-3,10.8-2.8,15.3,0.5c4.8,3.6,6,9.2,3.6,17.2
	c3.6,3.3,7.3,6.6,11,9.9c4.8,4.3,9.7,8.6,14.5,12.9c1.5,1.4,2.8,2.2,4.9,0.9c1.2-0.8,3-1,4.5-1c2.3,0.1,3.3-0.9,4.1-2.9
	c3.6-9.9,7.3-19.8,10.9-29.6c8.3-22.3,16.5-44.5,24.9-66.8c1-2.6,1.2-4.3-1.1-6.5c-4.1-3.9-4.5-10.6-1.6-15.6
	c2.8-4.8,8.6-7.2,14.3-5.9c5.4,1.2,9.5,6,9.9,11.6c0.5,6-2.8,11.3-8.2,13.4c-1.2,0.5-2.7,0.8-4,0.7c-2.4-0.2-3.2,0.9-4,2.9
	c-9,24.2-18,48.4-27,72.7c-3.1,8.2-6.1,16.4-9.2,24.6c-0.7,1.9-0.9,3.2,0.9,4.9c4.8,4.4,5.4,11.9,1.7,17.1
	c-3.6,5.1-10.7,6.9-16.5,4.1c-5.7-2.8-8.6-9.2-6.6-15.5c0.8-2.4,0.2-3.8-1.6-5.3c-7.9-6.9-15.7-14-23.6-21c-0.7-0.6-2.2-1.3-2.9-1
	c-5,2.4-9.9,2-14.8-0.7c-9.3,8.4-18.6,16.7-27.9,25c1.2,3.3,2.1,6.3,1.2,9.7c-1.6,6.1-5.9,9.9-12.3,10c-2.3,0-3,1.2-3.6,3
	c-6.3,16.9-12.5,33.8-18.8,50.7c-5.7,15.4-11.4,30.9-17.3,46.3c-0.8,2.2-0.7,3.7,1.1,5.4c4.2,4.1,5,10.4,2.1,15.6
	c-2.8,5-8.4,7.6-14,6.5c-5.7-1.1-9.8-5.6-10.3-11.5c-0.2-1.8,0-3.8,0.6-5.5c0.9-2.2,0.1-3.4-1.4-4.8c-6.9-6.1-13.7-12.2-20.5-18.3
	C681,304.2,679.3,302.6,677.6,301.1z"/>
<path class="st1" d="M740.5,377.1c-61.5,0-123,0-184.5,0c-1,0-2.1,0.1-3.1,0c-2.5-0.2-3.7-1.5-3.8-4c0-0.8,0-1.7,0-2.5
	c0-110.1,0-220.1,0-330.2c0-1.1-0.2-2.3,0.1-3.4c0.2-0.7,1-1.5,1.6-1.7c1.3-0.3,1.9,0.5,1.9,1.8c0,1,0,2.1,0,3.1
	c0,109.2,0,218.5,0,327.7c0,6.1-0.6,5.6,5.5,5.6c122.3,0,244.5,0,366.8,0c1.1,0,2.3,0,3.4,0c1.2,0,2,0.5,1.9,1.9
	c0,1.4-0.9,1.7-2,1.8c-1,0-2.1,0-3.1,0C863.7,377.1,802.1,377.1,740.5,377.1z"/>
<path class="st1" d="M210.4,377.1c-61.5,0-123,0-184.5,0c-1.1,0-2.3,0-3.4,0c-1.8-0.1-2.8-1.2-3-3c-0.1-0.8,0-1.7,0-2.5
	c0-110.7,0-221.4,0-332c0-1-0.1-2.1,0.2-3.1c0.1-0.5,0.9-1,1.5-1.1c0.4-0.1,1.1,0.6,1.2,1c0.2,1.1,0.2,2.3,0.2,3.4
	c0,64.5,0,129,0,193.5c0,45.1,0,90.3,0,135.4c0,4.8,0,4.8,4.8,4.8c122.6,0,245.1,0,367.7,0c1.1,0,2.3-0.2,3.4,0.1
	c0.7,0.2,1.5,1,1.7,1.7c0.3,1.3-0.5,1.9-1.8,1.9c-1,0-2.1,0-3.1,0C333.5,377.1,271.9,377.1,210.4,377.1z"/>
<path class="st0" d="M281.6,175.9c-7.5,0-13.2-5.5-13.3-12.8c0-7.4,5.5-13,13-13.1c7.5-0.1,13.2,5.4,13.3,12.8
	C294.7,170.1,289,175.8,281.6,175.9z"/>
<path class="st0" d="M139.2,303.4c-7.4,0-13-5.7-13-13.1c0-7.4,5.6-13,13.1-13c7.4-0.1,13.1,5.8,13.1,13.4
	C152.3,297.7,146.4,303.4,139.2,303.4z"/>
<path class="st0" d="M186.7,346c-7.3,0-13.1-5.5-13.2-12.6c-0.1-7.5,5.5-13.4,13-13.6c7.2-0.2,13.1,5.7,13.2,13
	C199.6,340.3,194.1,345.9,186.7,346z"/>
<path class="st0" d="M234.1,192.4c7.4,0,13.1,5.7,13,13c-0.1,7.4-5.8,13-13.2,12.9c-7.2-0.1-13.1-5.9-13.1-12.8
	C220.9,197.9,226.4,192.4,234.1,192.4z"/>
<path class="st0" d="M91.6,303.4c-7.3-0.1-13-6.1-12.8-13.4c0.2-7.4,6-13,13.4-12.8c7.3,0.2,13.1,6.1,12.9,13.3
	C104.9,297.8,98.8,303.6,91.6,303.4z"/>
<path class="st0" d="M44.8,235c7.3,0.1,12.8,5.6,12.7,12.9c0,7.4-5.6,13-13.1,13c-7.3,0-13.2-5.8-13.1-13
	C31.4,240.3,37.1,234.9,44.8,235z"/>
<path class="st0" d="M329,192.4c7.6,0.1,12.7,5.4,12.6,13.2c0,7.4-5.6,12.8-13.2,12.8c-7.2-0.1-12.8-5.7-12.8-13
	C315.7,197.8,321.3,192.4,329,192.4z"/>
<path class="st0" d="M376,90.9c-7.4-0.1-12.9-5.7-12.8-13.2c0.1-7.5,5.7-12.9,13.2-12.8c7.4,0.1,12.9,5.7,12.8,13.2
	C389.1,85.4,383.4,90.9,376,90.9z"/>
</svg>
