<?xml version="1.0" encoding="utf-8"?>
<!-- Generator: Adobe Illustrator 21.0.0, SVG Export Plug-In . SVG Version: 6.00 Build 0)  -->
<svg version="1.1" id="Layer_1" xmlns="http://www.w3.org/2000/svg" xmlns:xlink="http://www.w3.org/1999/xlink" x="0px" y="0px"
	 viewBox="0 0 963.9 444" style="enable-background:new 0 0 963.9 444;" xml:space="preserve">
<style type="text/css">
	.st0{font-family:'Muli-Black';}
	.st1{font-size:100.1556px;}
</style>
<g>
	<path d="M150.3,344.7c-39.3,0-78.6,0-117.8,0c-9.5,0-12.2-2.7-12.2-12.3c0-24.8,0-49.5,0-74.3c0-8.8,3.1-11.8,12-11.8
		c22.3,0,44.7-0.1,67,0.1c3.9,0,5-1.2,5-5.1c-0.1-25.8-0.1-51.7-0.1-77.5c0-5.6,0.2-5.9,5.9-5.9c26.8,0,53.5,0,80.3,0
		c5.6,0,6,0.4,6,6c0,25.4,0,50.8,0,76.3c0,6.1,0,6.1,6.2,6.1c22.1,0,44.1,0,66.2,0c8.1,0,11.2,3.1,11.2,11.2c0,25.3,0,50.6,0,75.9
		c0,8.5-2.8,11.3-11.4,11.3C229.1,344.7,189.7,344.7,150.3,344.7z M150,326.7c1.2,0,2.4,0,3.6,0c34.3,0,68.6-0.1,102.9,0.1
		c4.2,0,5.4-1.2,5.4-5.4c-0.2-17.6-0.2-35.2,0-52.9c0-2.9-0.7-4-3.8-4c-19.2,0.1-38.5,0.1-57.7,0c-3.1,0-4,1.1-3.9,4
		c0.1,7.3,0,14.5,0,21.8c0,3-1.2,4.3-4.4,4.3c-27.8-0.1-55.7-0.1-83.5,0c-3.4,0-4.5-1.3-4.4-4.6c0.1-7-0.1-14,0.1-21
		c0.1-3.6-1.1-4.5-4.6-4.5c-18.8,0.2-37.7,0.2-56.5,0c-3.9,0-4.6,1.3-4.6,4.8c0.2,17.3,0.2,34.7,0,52c-0.1,4.3,1.2,5.4,5.4,5.4
		C79.2,326.7,114.6,326.7,150,326.7z M191.3,204.8c0-12.5-0.1-25,0-37.5c0-3-0.8-4.3-4.1-4.3c-24.7,0.1-49.5,0.1-74.2,0
		c-3.3,0-4.1,1.2-4.1,4.3c0.1,24.9,0.1,49.8,0,74.6c0,3.2,0.9,4.5,4.3,4.5c24.6-0.1,49.2-0.1,73.8,0c3.4,0,4.4-1.2,4.3-4.5
		C191.3,229.6,191.3,217.2,191.3,204.8z M150.4,264.6c-12.5,0-25,0.1-37.5-0.1c-2.9,0-4.1,0.8-4,3.8c0.2,5.8,0.1,11.6,0,17.3
		c-0.1,2.7,0.8,3.9,3.7,3.9c25-0.1,50-0.1,74.9,0c3.1,0,3.9-1.3,3.8-4.1c-0.1-5.4-0.2-10.8,0-16.1c0.2-3.6-0.9-4.9-4.7-4.8
		C174.6,264.8,162.5,264.6,150.4,264.6z"/>
	<path d="M800,417.6c-39.4,0-78.8,0-118.2,0c-9,0-11.7-2.7-11.7-11.8c0-25,0-50,0-75c0-8.2,3-11.2,11.2-11.2c79.1,0,158.1,0,237.2,0
		c8.4,0,11.3,3,11.3,11.5c0,25.1,0,50.3,0,75.4c0,8.2-2.9,11.1-11.2,11.1C879.1,417.6,839.6,417.6,800,417.6z M800.1,399.7
		c35.5,0,71-0.1,106.5,0.1c4.2,0,5.2-1.2,5.1-5.2c-0.2-17.6-0.2-35.2,0-52.8c0-3.6-1.1-4.5-4.6-4.5c-71.4,0.1-142.8,0.1-214.2,0
		c-3.6,0-4.5,1.1-4.5,4.6c0.2,17.6,0.2,35.2,0,52.8c-0.1,4.2,1.3,5.1,5.2,5.1C729.1,399.7,764.6,399.7,800.1,399.7z"/>
	<path d="M467.5,417.6c-36.5,0-72.9,0-109.4,0c-9.4,0-11.8-2.4-11.8-11.6c0-25.2,0-50.3,0-75.5c0-8.3,2.7-11,11.2-11
		c73.6,0,147.2,0,220.8,0c8.3,0,11,2.9,11,11.2c0,25,0,50,0,75.1c0,9.4-2.4,11.8-12,11.8C540.7,417.6,504.1,417.6,467.5,417.6z
		 M468,337.3c-33,0-65.9,0.1-98.9-0.1c-3.7,0-5.2,0.8-5.2,4.9c0.2,17.6,0.2,35.2,0,52.9c0,3.6,1,4.8,4.8,4.8
		c66-0.1,132.1-0.1,198.1,0c3.8,0,4.8-1.3,4.7-4.9c-0.1-17.5-0.2-35,0-52.5c0-4-1.1-5.3-5.2-5.2C533.6,337.4,500.8,337.3,468,337.3z
		"/>
	<path d="M429.6,226.1c0-20.8,0-41.7,0-62.5c0-5,0.5-5.5,5.6-5.5c21.7,0,43.3,0,65,0c5.3,0,5.8,0.5,5.8,5.7c0,41.7,0,83.4,0,125.1
		c0,5.2-0.5,5.7-5.8,5.7c-21.7,0-43.3,0-65,0c-5.1,0-5.6-0.4-5.6-5.5C429.6,268,429.6,247.1,429.6,226.1z M500.6,226.3
		c0-19.6-0.1-39.3,0.1-58.9c0-3.3-1-4.5-4.3-4.4c-19,0.1-37.9,0.1-56.9,0c-3.6,0-4.6,1.1-4.6,4.6c0.1,39.1,0.1,78.2,0,117.4
		c0,3.5,1.1,4.7,4.5,4.7c18.8-0.1,37.6-0.1,56.5,0c3.7,0,4.8-1.1,4.8-4.9C500.5,265.3,500.6,245.8,500.6,226.3z"/>
	<path d="M800.2,158c13.6,0,27.2,0.1,40.8-0.1c3.8,0,5.1,1.3,5.1,5.2c-0.1,23-0.1,46-0.1,69c0,0.8,0.2,1.8-0.1,2.4
		c-0.4,0.7-1.5,1.7-2.1,1.7c-0.9-0.1-2.1-1-2.4-1.8c-0.4-1.4-0.2-2.9-0.2-4.4c0-20.7-0.1-41.4,0.1-62.1c0-3.6-1-4.9-4.8-4.9
		c-24.3,0.1-48.7,0.2-73,0c-3.9,0-4.7,1.4-4.7,4.9c0.1,21.1,0.1,42.2,0.1,63.3c0,1.2,0.2,2.5-0.2,3.6c-0.3,0.7-1.5,1.3-2.4,1.4
		c-0.7,0-1.7-0.7-2-1.3c-0.4-0.9-0.2-2.1-0.2-3.2c0-22.7,0-45.5,0-68.2c0-5.2,0.3-5.5,5.5-5.5C773,158,786.6,158,800.2,158z"/>
	<path d="M800,294.5c-13.7,0-27.4-0.1-41.1,0.1c-3.6,0-5.1-1-5-4.8c0.2-8.7,0.1-17.5,0.1-26.2c0-1.8-0.1-4,2.5-3.3
		c1,0.2,2.1,2.1,2.2,3.2c0.2,7.3,0.2,14.5,0.1,21.8c-0.1,3.1,0.9,4.3,4.1,4.3c24.7-0.1,49.5-0.1,74.2,0c3.1,0,4.3-1,4.2-4.2
		c-0.2-7.3-0.1-14.5,0-21.8c0-1.7-0.2-4,2.5-3.3c1,0.2,2.2,2.1,2.2,3.2c0.2,8.9,0,17.7,0.1,26.6c0.1,3.3-1.2,4.5-4.5,4.5
		C827.7,294.5,813.9,294.5,800,294.5z"/>
</g>
<text transform="matrix(1 0 0 1 117.8486 131.2402)" class="st0 st1">1</text>
<text transform="matrix(1 0 0 1 436.8485 131.2402)" class="st0 st1">2</text>
<text transform="matrix(1 0 0 1 763.8486 131.2402)" class="st0 st1">3</text>
</svg>
