<?xml version="1.0" encoding="utf-8"?>
<!-- Generator: Adobe Illustrator 21.0.0, SVG Export Plug-In . SVG Version: 6.00 Build 0)  -->
<svg version="1.1" id="Layer_1" xmlns="http://www.w3.org/2000/svg" xmlns:xlink="http://www.w3.org/1999/xlink" x="0px" y="0px"
	 viewBox="0 0 1000 1000" style="enable-background:new 0 0 1000 1000;" xml:space="preserve">
<style type="text/css">
	.st0{fill:#161616;}
</style>
<g>
	<circle class="st0" cx="144" cy="144" r="45"/>
</g>
<g>
	<circle class="st0" cx="288" cy="144" r="45"/>
</g>
<g>
	<circle class="st0" cx="432" cy="144" r="45"/>
</g>
<g>
	<circle class="st0" cx="576" cy="144" r="45"/>
</g>
<g>
	<circle class="st0" cx="720" cy="144" r="45"/>
</g>
<g>
	<circle class="st0" cx="864" cy="144" r="45"/>
</g>
<g>
	<circle class="st0" cx="144" cy="288" r="45"/>
</g>
<g>
	<circle class="st0" cx="288" cy="288" r="45"/>
</g>
<g>
	<circle class="st0" cx="432" cy="288" r="45"/>
</g>
<g>
	<circle class="st0" cx="576" cy="288" r="45"/>
</g>
<g>
	<circle class="st0" cx="720" cy="288" r="45"/>
</g>
<g>
	<circle class="st0" cx="864" cy="288" r="45"/>
</g>
<g>
	<circle class="st0" cx="144" cy="432" r="45"/>
</g>
<g>
	<circle class="st0" cx="288" cy="432" r="45"/>
</g>
<g>
	<circle class="st0" cx="432" cy="432" r="45"/>
</g>
<g>
	<circle class="st0" cx="576" cy="432" r="45"/>
</g>
<g>
	<circle class="st0" cx="720" cy="432" r="45"/>
</g>
<g>
	<circle class="st0" cx="864" cy="432" r="45"/>
</g>
<g>
	<circle class="st0" cx="144" cy="576" r="45"/>
</g>
<g>
	<circle class="st0" cx="288" cy="576" r="45"/>
</g>
<g>
	<circle class="st0" cx="432" cy="576" r="45"/>
</g>
<g>
	<circle class="st0" cx="576" cy="576" r="45"/>
</g>
<g>
	<circle class="st0" cx="720" cy="576" r="45"/>
</g>
<g>
	<circle class="st0" cx="864" cy="576" r="45"/>
</g>
<g>
	<circle class="st0" cx="144" cy="720" r="45"/>
</g>
<g>
	<circle class="st0" cx="288" cy="720" r="45"/>
</g>
<g>
	<circle class="st0" cx="432" cy="720" r="45"/>
</g>
<g>
	<circle class="st0" cx="576" cy="720" r="45"/>
</g>
<g>
	<circle class="st0" cx="720" cy="720" r="45"/>
</g>
<g>
	<circle class="st0" cx="864" cy="720" r="45"/>
</g>
<g>
	<circle class="st0" cx="144" cy="864" r="45"/>
</g>
<g>
	<circle class="st0" cx="288" cy="864" r="45"/>
</g>
<g>
	<circle class="st0" cx="432" cy="864" r="45"/>
</g>
<g>
	<circle class="st0" cx="576" cy="864" r="45"/>
</g>
<g>
	<circle class="st0" cx="720" cy="864" r="45"/>
</g>
<g>
	<circle class="st0" cx="864" cy="864" r="45"/>
</g>
</svg>
