<?xml version="1.0" encoding="utf-8"?>
<!-- Generator: Adobe Illustrator 21.0.0, SVG Export Plug-In . SVG Version: 6.00 Build 0)  -->
<svg version="1.1" id="Layer_1" xmlns="http://www.w3.org/2000/svg" xmlns:xlink="http://www.w3.org/1999/xlink" x="0px" y="0px"
	 viewBox="0 0 1000 1000" style="enable-background:new 0 0 1000 1000;" xml:space="preserve">
<style type="text/css">
	.st0{fill:#B3B3B3;}
	.st1{fill:none;stroke:#999999;stroke-width:8;stroke-miterlimit:10;}
	.st2{fill:#808080;}
</style>
<g>
	<rect x="500" y="122" class="st0" width="351" height="699"/>
	<path d="M249.6,550c-2.2,4.4,1.5,6.8,4.9,9.7c11.3,9.4,22.5,18.8,33.6,28.3c2.2,1.9,4.2,2.4,7.2,1.6c12.8-3.7,23.6,0.6,31.4,11.4
		c1.2,1.7,3.9,3,5.9,3.1c7.6,0.4,15.3,0.3,23,0c1.9-0.1,4.4-1.4,5.5-2.9c7.2-10,17.8-14.8,28.3-12.5c12.2,2.8,19.8,10.9,21.9,23.6
		c0.2,1.5,0.6,3.2,0.1,4.4c-2.1,5.2,1.1,7.8,4.6,10.7c11.5,9.4,22.7,19.1,34.1,28.6c4.3,3.6,13.5,1.3,15.6-3.9
		c19.8-49.9,39.6-99.9,59.2-149.9c0.7-1.9,0.3-4.9-0.8-6.7c-6.6-10.4-6.8-22.5-0.1-31.9c6.8-9.5,18.2-13.6,30-10.2
		c3.2,0.9,5.3,0.3,7.6-1.7c11.9-10.1,23.8-20.3,36-30.2c3-2.4,2.5-5,2.4-8c-0.7-11.8,4.2-20.8,14.7-26.2c10.3-5.3,20.4-4.1,29.5,3.1
		c7.5,5.9,10.6,14,9.6,23.4c-0.4,3.8,0.7,6.2,3.6,8.5c11.6,9.5,23,19.3,34.5,28.9c5.7,4.7,14.1,2.6,16.8-4.1
		c19.7-49.6,39.4-99.3,59.2-148.9c1.2-2.9,0.4-4.8-1.3-7.2c-6.5-9.8-6.8-20.1-0.7-30.1c5.9-9.5,15-13.8,26-12.5
		c12,1.5,20.1,8.5,23.2,20.4c3.9,14.6-5.3,29.7-20,32.8c-3.9,0.8-5.8,2.7-7.2,6.3c-19.5,49.4-39,98.7-58.7,148c-1.2,2.9-1,5,0.9,7.7
		c6.6,9.7,6.9,20.1,0.9,30.1c-5.7,9.4-14.7,13.8-25.4,12.6c-12-1.2-20.4-8-23.6-19.8c-1-3.6-0.3-7.6-0.9-11.4
		c-0.3-2.1-1.1-4.6-2.6-5.8c-12-10.4-24.1-20.6-36.4-30.5c-1.6-1.3-4.4-1.4-6.6-1.5c-5.6-0.2-11.1-0.1-16.7,0
		c-2.3,0.1-5.1,0-6.6,1.3c-12.4,10.1-24.6,20.4-36.7,30.9c-1.4,1.3-2.5,3.9-2.4,5.9c0.7,17.1-6,26.2-22.7,30.9
		c-1.7,0.5-3.7,2.3-4.4,4c-20,50.2-40,100.5-59.7,150.8c-0.6,1.6-0.2,4.2,0.8,5.7c6,9.1,7.3,18.5,2.6,28.4
		c-4.7,9.7-13.1,15-23.5,15.2c-18.1,0.4-29.6-14.6-27.9-31.1c0.2-1.9-0.7-4.6-2-5.8c-12.3-10.7-24.8-21.2-37.5-31.5
		c-1.3-1.1-4-1.5-5.7-1.1c-13.2,3.5-23.9-0.3-31.8-11.4c-1-1.4-3.3-2.7-5.1-2.8c-8.2-0.3-16.3-0.3-24.5,0c-1.7,0.1-4,1.4-5,2.9
		c-7.3,10.4-18.9,15-30.5,11.8c-11.1-3-20.5-13.5-19.4-25.4c0.7-8.3-3.4-11.5-8.3-15.6c-10-8.3-20-16.7-29.8-25.1
		c-2.6-2.2-4.8-3-8.4-1.9c-11.3,3.2-21.2,0.1-28.6-9c-7.2-9-8.2-19.2-2.9-29.4c5.3-10.3,14.3-15.1,25.8-14.6
		C238.8,521.1,250.9,533.8,249.6,550z"/>
	<line class="st1" x1="132" y1="117" x2="132" y2="857"/>
	<line class="st1" x1="94" y1="821" x2="907" y2="821"/>
	<g>
		<path class="st2" d="M268.8,881.6l-3.3-7.6h-16l-3.3,7.6h-7.5l15.7-34.2h6.1l15.7,34.2H268.8z M252.1,868.3h11.1l-5.5-12.8
			L252.1,868.3z"/>
		<path class="st2" d="M285.2,879.9c-2.6-1.5-4.6-3.5-5.9-6.2c-1.4-2.6-2.1-5.7-2.1-9.3c0-3.5,0.7-6.6,2.1-9.2
			c1.4-2.6,3.4-4.7,5.9-6.1c2.6-1.4,5.6-2.2,9.1-2.2c2.3,0,4.4,0.3,6.5,1c2.1,0.7,3.8,1.7,5.1,2.9l-2.4,5.4c-1.5-1.2-3-2-4.5-2.5
			c-1.5-0.5-3-0.8-4.6-0.8c-3.1,0-5.4,1-7.1,2.9c-1.6,2-2.5,4.8-2.5,8.6c0,3.8,0.8,6.7,2.5,8.6c1.6,2,4,3,7.1,3
			c1.6,0,3.1-0.3,4.6-0.8c1.5-0.5,3-1.4,4.5-2.5l2.4,5.4c-1.3,1.2-3,2.2-5.1,2.9c-2.1,0.7-4.2,1-6.5,1
			C290.8,882.1,287.8,881.3,285.2,879.9z"/>
		<path class="st2" d="M318.5,881.6v-28.1h-10.7v-6.1h29v6.1h-10.7v28.1H318.5z"/>
		<path class="st2" d="M344.4,878.4c-2.5-2.5-3.7-6.1-3.7-10.9v-20.1h7.4v20.4c0,2.7,0.6,4.8,1.9,6.2c1.3,1.4,3.1,2.1,5.5,2.1
			c2.4,0,4.2-0.7,5.4-2.1c1.2-1.4,1.9-3.5,1.9-6.2v-20.4h7.4v20.1c0,4.7-1.3,8.4-3.8,10.8c-2.5,2.5-6.2,3.7-10.9,3.7
			C350.5,882.1,346.9,880.8,344.4,878.4z"/>
		<path class="st2" d="M402.6,881.6l-3.3-7.6h-16l-3.3,7.6h-7.5l15.7-34.2h6.1l15.7,34.2H402.6z M385.8,868.3h11.1l-5.5-12.8
			L385.8,868.3z"/>
		<path class="st2" d="M412.9,881.6v-34.2h7.5v28.1h15.3v6.1H412.9z"/>
	</g>
	<g>
		<path class="st2" d="M559.7,881.6v-34.2h23.1v5.9h-15.7v7.9h14.7v6h-14.7v14.4H559.7z"/>
		<path class="st2" d="M594,879.9c-2.5-1.4-4.5-3.5-5.8-6.1c-1.4-2.7-2-5.8-2-9.3s0.7-6.6,2-9.3c1.4-2.6,3.3-4.7,5.8-6.1
			c2.5-1.4,5.5-2.1,8.9-2.1c3.4,0,6.3,0.7,8.8,2.1c2.5,1.4,4.4,3.5,5.8,6.1c1.3,2.6,2,5.7,2,9.3s-0.7,6.7-2,9.3
			c-1.3,2.7-3.3,4.7-5.8,6.1c-2.5,1.4-5.4,2.1-8.8,2.1C599.5,882.1,596.5,881.4,594,879.9z M609.6,873.2c1.6-2,2.4-4.9,2.4-8.7
			c0-3.8-0.8-6.7-2.4-8.6c-1.6-2-3.9-3-6.8-3s-5.1,1-6.8,3c-1.6,2-2.4,4.9-2.4,8.6c0,3.8,0.8,6.7,2.4,8.7c1.6,2,3.9,3,6.8,3
			S608,875.2,609.6,873.2z"/>
		<path class="st2" d="M654.3,881.6h-7.9l-4.4-11.4c-0.4-0.9-0.9-1.5-1.6-1.9s-1.6-0.5-2.7-0.5h-4.9v13.8h-7.4v-34.2h15.2
			c4,0,7,0.9,9,2.6c2.1,1.7,3.1,4.2,3.1,7.4c0,2.3-0.6,4.2-1.8,5.9c-1.2,1.6-2.9,2.8-5.2,3.5c2,0.4,3.5,1.8,4.4,4.2L654.3,881.6z
			 M639.5,862.1c2.1,0,3.7-0.4,4.7-1.1c1-0.7,1.5-1.8,1.5-3.4c0-1.5-0.5-2.7-1.5-3.4c-1-0.7-2.6-1.1-4.7-1.1h-6.8v8.9H639.5z"/>
		<path class="st2" d="M659.4,881.6v-34.2H683v5.8h-16.3v8.1H682v5.9h-15.3v8.6H683v5.8H659.4z"/>
		<path class="st2" d="M695.2,879.9c-2.6-1.5-4.6-3.5-5.9-6.2c-1.4-2.6-2.1-5.7-2.1-9.3c0-3.5,0.7-6.6,2.1-9.2
			c1.4-2.6,3.4-4.7,5.9-6.1c2.6-1.4,5.6-2.2,9.1-2.2c2.3,0,4.4,0.3,6.5,1c2.1,0.7,3.8,1.7,5.1,2.9l-2.4,5.4c-1.5-1.2-3-2-4.5-2.5
			c-1.5-0.5-3-0.8-4.6-0.8c-3.1,0-5.4,1-7.1,2.9c-1.6,2-2.5,4.8-2.5,8.6c0,3.8,0.8,6.7,2.5,8.6c1.6,2,4,3,7.1,3
			c1.6,0,3.1-0.3,4.6-0.8c1.5-0.5,3-1.4,4.5-2.5l2.4,5.4c-1.3,1.2-3,2.2-5.1,2.9s-4.2,1-6.5,1C700.8,882.1,697.7,881.3,695.2,879.9z
			"/>
		<path class="st2" d="M746.7,881.6l-3.3-7.6h-16l-3.3,7.6h-7.5l15.7-34.2h6.1l15.7,34.2H746.7z M729.9,868.3H741l-5.5-12.8
			L729.9,868.3z"/>
		<path class="st2" d="M761,881c-2.4-0.7-4.4-1.7-5.9-2.9l2.4-5.4c3.3,2.3,7,3.5,11.1,3.5c2.2,0,3.9-0.3,5-1
			c1.2-0.7,1.8-1.7,1.8-2.9c0-1.1-0.5-1.9-1.6-2.6s-3-1.2-5.6-1.8c-3-0.6-5.4-1.4-7.2-2.2s-3.1-2-3.9-3.2c-0.8-1.3-1.2-2.8-1.2-4.7
			c0-2,0.6-3.9,1.7-5.5c1.1-1.6,2.7-2.9,4.8-3.8s4.4-1.4,7.1-1.4c2.4,0,4.8,0.4,7,1.1c2.2,0.7,4,1.7,5.4,2.9l-2.4,5.4
			c-3-2.3-6.3-3.5-9.9-3.5c-1.9,0-3.5,0.4-4.6,1.2s-1.7,1.8-1.7,3.1c0,0.8,0.2,1.4,0.6,1.9c0.4,0.5,1.2,1,2.2,1.4s2.5,0.8,4.4,1.2
			c4.4,1,7.6,2.2,9.5,3.7c1.9,1.5,2.9,3.6,2.9,6.3c0,3.2-1.2,5.7-3.7,7.6c-2.5,1.9-6,2.8-10.4,2.8C765.9,882.1,763.4,881.7,761,881z
			"/>
		<path class="st2" d="M795.3,881.6v-28.1h-10.7v-6.1h29v6.1h-10.7v28.1H795.3z"/>
	</g>
</g>
</svg>
