<?xml version="1.0" encoding="utf-8"?>
<!-- Generator: Adobe Illustrator 21.0.0, SVG Export Plug-In . SVG Version: 6.00 Build 0)  -->
<svg version="1.1" xmlns="http://www.w3.org/2000/svg" xmlns:xlink="http://www.w3.org/1999/xlink" x="0px" y="0px"
	 viewBox="0 0 1000 1000" style="enable-background:new 0 0 1000 1000;" xml:space="preserve">
<style type="text/css">
	.st0{fill:#161616;}
	.st2{display:inline;}
</style>
<g id="row">
	<g>
		<g>
			<circle class="st0" cx="144" cy="130.5" r="35"/>
		</g>
		<g>
			<circle class="st0" cx="288" cy="130.5" r="35"/>
		</g>
		<g>
			<circle class="st0" cx="432" cy="130.5" r="35"/>
		</g>
		<g>
			<circle class="st0" cx="576" cy="130.5" r="35"/>
		</g>
		<g>
			<circle class="st0" cx="720" cy="130.5" r="35"/>
		</g>
		<g>
			<circle class="st0" cx="864" cy="130.5" r="35"/>
		</g>
	</g>
	<g>
		<g>
			<circle class="st0" cx="144" cy="315.3" r="35"/>
		</g>
		<g>
			<circle class="st0" cx="288" cy="315.3" r="35"/>
		</g>
		<g>
			<circle class="st0" cx="432" cy="315.3" r="35"/>
		</g>
		<g>
			<circle class="st0" cx="576" cy="315.3" r="35"/>
		</g>
		<g>
			<circle class="st0" cx="720" cy="315.3" r="35"/>
		</g>
		<g>
			<circle class="st0" cx="864" cy="315.3" r="35"/>
		</g>
	</g>
	<g>
		<g>
			<circle class="st0" cx="144" cy="500" r="35"/>
		</g>
		<g>
			<circle class="st0" cx="288" cy="500" r="35"/>
		</g>
		<g>
			<circle class="st0" cx="432" cy="500" r="35"/>
		</g>
		<g>
			<circle class="st0" cx="576" cy="500" r="35"/>
		</g>
		<g>
			<circle class="st0" cx="720" cy="500" r="35"/>
		</g>
		<g>
			<circle class="st0" cx="864" cy="500" r="35"/>
		</g>
	</g>
	<g>
		<g>
			<circle class="st0" cx="144" cy="684.8" r="35"/>
		</g>
		<g>
			<circle class="st0" cx="288" cy="684.8" r="35"/>
		</g>
		<g>
			<circle class="st0" cx="432" cy="684.8" r="35"/>
		</g>
		<g>
			<circle class="st0" cx="576" cy="684.8" r="35"/>
		</g>
		<g>
			<circle class="st0" cx="720" cy="684.8" r="35"/>
		</g>
		<g>
			<circle class="st0" cx="864" cy="684.8" r="35"/>
		</g>
	</g>
	<g>
		<g>
			<circle class="st0" cx="144" cy="869.5" r="35"/>
		</g>
		<g>
			<circle class="st0" cx="288" cy="869.5" r="35"/>
		</g>
		<g>
			<circle class="st0" cx="432" cy="869.5" r="35"/>
		</g>
		<g>
			<circle class="st0" cx="576" cy="869.5" r="35"/>
		</g>
		<g>
			<circle class="st0" cx="720" cy="869.5" r="35"/>
		</g>
		<g>
			<circle class="st0" cx="864" cy="869.5" r="35"/>
		</g>
	</g>
</g>


</svg>
