<?xml version="1.0" standalone="no"?><!-- Generator: Gravit.io --><svg xmlns="http://www.w3.org/2000/svg" xmlns:xlink="http://www.w3.org/1999/xlink" style="isolation:isolate" viewBox="0 0 297.051 332.035" width="297.051" height="332.035"><defs><clipPath id="_clipPath_7RWgdOsO45LpjO4nJQ6YxDQBiiPcGgR1"><rect width="297.051" height="332.035"/></clipPath></defs><g clip-path="url(#_clipPath_7RWgdOsO45LpjO4nJQ6YxDQBiiPcGgR1)"><g><mask id="_mask_CrxgWXu2T9lkKqwxr3bouYWcn04jBJzC"><path d=" M 282.159 259.824 L 236.779 286.505 C 228.891 291.142 216.025 298.57 208.065 303.081 L 162.948 328.652 C 154.988 333.163 142.063 333.163 134.104 328.651 L 88.307 302.691 C 80.347 298.179 67.482 290.75 59.595 286.112 L 14.892 259.825 C 7.004 255.187 0.542 243.994 0.47 234.844 L 0.054 182.203 C -0.018 173.054 -0.018 158.198 0.055 149.048 L 0.469 97.191 C 0.542 88.041 7.005 76.848 14.892 72.211 L 60.273 45.53 C 68.16 40.893 81.026 33.465 88.986 28.954 L 134.103 3.383 C 142.063 -1.128 154.988 -1.128 162.948 3.384 L 208.744 29.345 C 216.704 33.857 229.57 41.285 237.457 45.923 L 282.16 72.21 C 290.047 76.848 296.509 88.041 296.581 97.191 L 296.997 149.832 C 297.07 158.981 297.069 173.838 296.996 182.987 L 296.582 234.844 C 296.509 243.994 290.046 255.187 282.159 259.824 Z " fill="white" stroke="none"/></mask><path d=" M 282.159 259.824 L 236.779 286.505 C 228.891 291.142 216.025 298.57 208.065 303.081 L 162.948 328.652 C 154.988 333.163 142.063 333.163 134.104 328.651 L 88.307 302.691 C 80.347 298.179 67.482 290.75 59.595 286.112 L 14.892 259.825 C 7.004 255.187 0.542 243.994 0.47 234.844 L 0.054 182.203 C -0.018 173.054 -0.018 158.198 0.055 149.048 L 0.469 97.191 C 0.542 88.041 7.005 76.848 14.892 72.211 L 60.273 45.53 C 68.16 40.893 81.026 33.465 88.986 28.954 L 134.103 3.383 C 142.063 -1.128 154.988 -1.128 162.948 3.384 L 208.744 29.345 C 216.704 33.857 229.57 41.285 237.457 45.923 L 282.16 72.21 C 290.047 76.848 296.509 88.041 296.581 97.191 L 296.997 149.832 C 297.07 158.981 297.069 173.838 296.996 182.987 L 296.582 234.844 C 296.509 243.994 290.046 255.187 282.159 259.824 Z " fill="none" mask="url(#_mask_CrxgWXu2T9lkKqwxr3bouYWcn04jBJzC)" vector-effect="non-scaling-stroke" stroke-width="8" stroke="rgb(255,255,255)" stroke-linejoin="miter" stroke-linecap="square" stroke-miterlimit="3"/><path d=" M 246.391 195.358 L 246.391 195.358 Q 247.021 196.258 247.021 197.248 L 247.021 197.248 L 247.021 197.248 Q 247.021 198.598 246.076 199.363 L 246.076 199.363 L 246.076 199.363 Q 245.131 200.128 243.961 200.128 L 243.961 200.128 L 243.961 200.128 Q 242.791 200.128 241.981 199.138 L 241.981 199.138 L 216.871 167.548 L 204.631 179.068 L 204.631 196.978 L 204.631 196.978 Q 204.541 198.238 203.731 199.003 L 203.731 199.003 L 203.731 199.003 Q 202.921 199.768 201.751 199.768 L 201.751 199.768 L 201.751 199.768 Q 200.491 199.768 199.726 199.003 L 199.726 199.003 L 199.726 199.003 Q 198.961 198.238 198.961 196.978 L 198.961 196.978 L 198.961 139.558 L 198.961 139.558 Q 198.961 138.298 199.771 137.533 L 199.771 137.533 L 199.771 137.533 Q 200.581 136.768 201.841 136.768 L 201.841 136.768 L 201.841 136.768 Q 203.101 136.768 203.866 137.533 L 203.866 137.533 L 203.866 137.533 Q 204.631 138.298 204.631 139.558 L 204.631 139.558 L 204.631 172.228 L 240.991 137.848 L 240.991 137.848 Q 241.801 136.948 242.971 136.948 L 242.971 136.948 L 242.971 136.948 Q 244.051 136.948 244.816 137.758 L 244.816 137.758 L 244.816 137.758 Q 245.581 138.568 245.581 139.558 L 245.581 139.558 L 245.581 139.558 Q 245.581 140.638 244.771 141.448 L 244.771 141.448 L 221.191 163.498 L 246.391 195.358 L 246.391 195.358 Z  M 122.191 211.468 L 122.191 211.468 Q 121.111 211.468 120.391 210.703 L 120.391 210.703 L 120.391 210.703 Q 119.671 209.938 119.671 208.858 L 119.671 208.858 L 119.671 208.858 Q 119.671 208.138 120.031 207.508 L 120.031 207.508 L 159.181 130.018 L 159.181 130.018 Q 159.811 128.848 160.486 128.353 L 160.486 128.353 L 160.486 128.353 Q 161.161 127.858 162.151 127.858 L 162.151 127.858 L 162.151 127.858 Q 163.051 127.858 163.771 128.533 L 163.771 128.533 L 163.771 128.533 Q 164.491 129.208 164.491 130.288 L 164.491 130.288 L 164.491 130.288 Q 164.491 131.098 164.131 131.908 L 164.131 131.908 L 124.981 209.488 L 124.981 209.488 Q 124.351 210.568 123.721 211.018 L 123.721 211.018 L 123.721 211.018 Q 123.091 211.468 122.191 211.468 L 122.191 211.468 L 122.191 211.468 Z  M 69.271 200.668 L 69.271 200.668 Q 62.791 200.668 57.796 198.508 L 57.796 198.508 L 57.796 198.508 Q 52.801 196.348 48.121 191.758 L 48.121 191.758 L 48.121 191.758 Q 47.041 190.858 47.041 189.598 L 47.041 189.598 L 47.041 189.598 Q 47.041 188.518 47.896 187.618 L 47.896 187.618 L 47.896 187.618 Q 48.751 186.718 49.831 186.718 L 49.831 186.718 L 49.831 186.718 Q 50.911 186.718 51.811 187.618 L 51.811 187.618 L 51.811 187.618 Q 58.831 195.358 69.361 195.358 L 69.361 195.358 L 69.361 195.358 Q 75.841 195.358 80.116 192.298 L 80.116 192.298 L 80.116 192.298 Q 84.391 189.238 84.391 184.288 L 84.391 184.288 L 84.391 184.288 Q 84.391 180.418 82.276 177.853 L 82.276 177.853 L 82.276 177.853 Q 80.161 175.288 76.741 173.668 L 76.741 173.668 L 76.741 173.668 Q 73.321 172.048 68.011 170.338 L 68.011 170.338 L 68.011 170.338 Q 62.251 168.628 58.336 166.558 L 58.336 166.558 L 58.336 166.558 Q 54.421 164.488 51.991 161.023 L 51.991 161.023 L 51.991 161.023 Q 49.561 157.558 49.561 152.248 L 49.561 152.248 L 49.561 152.248 Q 49.561 147.478 52.126 143.788 L 52.126 143.788 L 52.126 143.788 Q 54.691 140.098 59.326 137.983 L 59.326 137.983 L 59.326 137.983 Q 63.961 135.868 69.991 135.868 L 69.991 135.868 L 69.991 135.868 Q 75.481 135.868 80.296 137.713 L 80.296 137.713 L 80.296 137.713 Q 85.111 139.558 87.991 142.978 L 87.991 142.978 L 87.991 142.978 Q 89.341 144.508 89.341 145.588 L 89.341 145.588 L 89.341 145.588 Q 89.341 146.578 88.441 147.433 L 88.441 147.433 L 88.441 147.433 Q 87.541 148.288 86.461 148.288 L 86.461 148.288 L 86.461 148.288 Q 85.561 148.288 84.931 147.658 L 84.931 147.658 L 84.931 147.658 Q 82.501 144.778 78.451 142.978 L 78.451 142.978 L 78.451 142.978 Q 74.401 141.178 69.991 141.178 L 69.991 141.178 L 69.991 141.178 Q 63.421 141.178 59.281 144.103 L 59.281 144.103 L 59.281 144.103 Q 55.141 147.028 55.141 152.068 L 55.141 152.068 L 55.141 152.068 Q 55.141 157.288 59.101 160.078 L 59.101 160.078 L 59.101 160.078 Q 63.061 162.868 70.441 165.208 L 70.441 165.208 L 70.441 165.208 Q 76.831 167.098 80.881 169.078 L 80.881 169.078 L 80.881 169.078 Q 84.931 171.058 87.496 174.703 L 87.496 174.703 L 87.496 174.703 Q 90.061 178.348 90.061 184.288 L 90.061 184.288 L 90.061 184.288 Q 90.061 188.878 87.406 192.613 L 87.406 192.613 L 87.406 192.613 Q 84.751 196.348 80.026 198.508 L 80.026 198.508 L 80.026 198.508 Q 75.301 200.668 69.271 200.668 L 69.271 200.668 L 69.271 200.668 Z " fill="rgb(255,255,255)"/></g></g></svg>