<?xml version="1.0" encoding="utf-8"?>
<!-- Generator: Adobe Illustrator 21.0.0, SVG Export Plug-In . SVG Version: 6.00 Build 0)  -->
<svg version="1.1" id="Layer_1" xmlns="http://www.w3.org/2000/svg" xmlns:xlink="http://www.w3.org/1999/xlink" x="0px" y="0px"
	 viewBox="0 0 724.5 336.8" style="enable-background:new 0 0 724.5 336.8;" xml:space="preserve">
<style type="text/css">
	.st0{stroke:#000000;stroke-width:0.75;stroke-miterlimit:3;}
</style>
<path d="M362.7,10c4.5,0,8.8,1,11.7,2.6l45.1,25.6c5.6,3.2,13.7,7.9,20.8,12c2.7,1.6,5.3,3,7.4,4.3l44,25.9
	c6.3,3.7,11.7,13,11.7,20.3l0.4,51.8c0.1,9,0.1,23.5,0,32.5l-0.4,51c-0.1,7.4-5.5,16.7-11.7,20.4l-44.7,26.2
	c-7.9,4.7-20.5,12-28.2,16.3l-44.4,25.2c-3,1.7-7.3,2.7-11.7,2.7s-8.8-1-11.7-2.6l-45.1-25.6c-5.6-3.2-13.7-7.9-20.8-12
	c-2.7-1.6-5.3-3-7.4-4.3l-44-25.9c-6.3-3.7-11.7-13-11.7-20.3l-0.4-51.8c-0.1-9-0.1-23.5,0-32.5l0.4-51c0.1-7.3,5.5-16.6,11.7-20.3
	l44.7-26.3c7.9-4.7,20.5-12,28.2-16.3L351,12.7C353.9,11,358.2,10,362.7,10 M362.7,5c-5.1,0-10.3,1.1-14.2,3.3l-44.4,25.2
	c-7.9,4.4-20.5,11.7-28.3,16.3l-44.7,26.3c-7.8,4.6-14.1,15.6-14.2,24.6l-0.4,51c-0.1,9-0.1,23.6,0,32.6l0.4,51.8
	c0.1,9,6.4,20,14.2,24.6l44,25.9c7.8,4.5,20.5,11.9,28.3,16.3l45.1,25.6c3.9,2.2,9.1,3.3,14.2,3.3s10.3-1.1,14.2-3.3l44.4-25.2
	c7.9-4.4,20.5-11.7,28.3-16.3l44.7-26.2c7.8-4.6,14.1-15.6,14.2-24.7l0.4-51c0.1-9,0.1-23.6,0-32.6l-0.4-51.8
	c-0.1-9-6.4-20-14.2-24.6l-44-25.9c-7.8-4.5-20.5-11.9-28.3-16.3L376.9,8.3C373,6.1,367.9,5,362.7,5L362.7,5z"/>
<g>
	<path class="st0" d="M574,184.4c0,0.6-0.2,1-0.6,1.3s-0.8,0.5-1.3,0.5s-0.9-0.2-1.2-0.6l-15.7-19.7l-7.6,7.2v11.2
		c0,0.5-0.2,0.9-0.6,1.3s-0.8,0.5-1.2,0.5c-0.5,0-0.9-0.2-1.3-0.5s-0.5-0.7-0.5-1.3v-35.9c0-0.5,0.2-0.9,0.5-1.3
		c0.3-0.3,0.8-0.5,1.3-0.5s0.9,0.2,1.3,0.5c0.3,0.3,0.5,0.7,0.5,1.3v20.4l22.7-21.5c0.3-0.4,0.7-0.6,1.2-0.6s0.8,0.2,1.2,0.5
		s0.5,0.7,0.5,1.1c0,0.4-0.2,0.8-0.5,1.2L558,163.3l15.7,19.9C573.8,183.6,574,184,574,184.4z"/>
	<path class="st0" d="M611.3,184.4c0,0.5-0.2,0.9-0.5,1.2s-0.7,0.5-1.2,0.5c-0.4,0-0.7-0.1-1-0.3s-0.5-0.5-0.6-0.8l-4.2-10.3h-18.3
		l-4.2,10.3c-0.3,0.8-0.8,1.1-1.5,1.1c-0.5,0-0.9-0.1-1.2-0.4c-0.3-0.3-0.4-0.6-0.5-1.1v-0.2c0-0.2,0-0.4,0.1-0.5l14.8-36.3
		c0.3-0.7,0.9-1.1,1.7-1.1c0.4,0,0.7,0.1,1,0.3s0.5,0.5,0.6,0.8l14.8,36.1C611.3,184.1,611.3,184.3,611.3,184.4z M586.8,171.3h15.6
		l-7.9-19.2L586.8,171.3z"/>
	<path class="st0" d="M648.2,147.1c0.3,0.3,0.4,0.7,0.4,1.1v36c0,0.6-0.2,1-0.5,1.3s-0.8,0.5-1.2,0.5c-0.3,0-0.5-0.1-0.8-0.2
		s-0.4-0.2-0.6-0.4L621.4,153v31.5c0,0.4-0.2,0.8-0.5,1.1s-0.7,0.5-1.1,0.5c-0.5,0-0.8-0.1-1.1-0.5c-0.3-0.3-0.5-0.7-0.5-1.1v-36.1
		c0-0.5,0.2-0.9,0.5-1.2s0.7-0.4,1.2-0.4c0.6,0,1,0.2,1.3,0.6l24.2,32.7v-31.7c0-0.4,0.1-0.8,0.5-1.1c0.3-0.3,0.7-0.4,1.1-0.4
		C647.5,146.7,647.9,146.8,648.2,147.1z"/>
	<path class="st0" d="M685.5,147.1c0.3,0.3,0.5,0.7,0.5,1.2s-0.2,0.9-0.5,1.2s-0.7,0.4-1.2,0.4h-11.6v34.5c0,0.5-0.2,0.9-0.5,1.2
		s-0.8,0.5-1.2,0.5c-0.5,0-0.9-0.2-1.3-0.5s-0.5-0.7-0.5-1.2v-34.5h-11.6c-0.5,0-0.9-0.1-1.2-0.4c-0.3-0.3-0.5-0.7-0.5-1.2
		c0-0.4,0.2-0.8,0.5-1.1s0.7-0.4,1.2-0.4h26.8C684.7,146.7,685.1,146.8,685.5,147.1z"/>
</g>
<path d="M722,109.6H538.6c-1.4,0-2.5-1.1-2.5-2.5s1.1-2.5,2.5-2.5H722c1.4,0,2.5,1.1,2.5,2.5S723.4,109.6,722,109.6z"/>
<path d="M722,225.7H538.6c-1.4,0-2.5-1.1-2.5-2.5s1.1-2.5,2.5-2.5H722c1.4,0,2.5,1.1,2.5,2.5S723.4,225.7,722,225.7z"/>
<g>
	<path class="st0" d="M28.4,185.2c-2.1-0.9-4.1-2.3-6-4.2c-0.4-0.4-0.7-0.8-0.7-1.3c0-0.4,0.2-0.9,0.5-1.2c0.4-0.4,0.8-0.6,1.2-0.6
		c0.4,0,0.9,0.2,1.2,0.6c2.9,3.2,6.6,4.8,11,4.8c2.7,0,4.9-0.6,6.7-1.9c1.8-1.3,2.7-2.9,2.7-5c0-1.6-0.4-3-1.3-4
		c-0.9-1.1-2-1.9-3.5-2.6c-1.4-0.7-3.2-1.4-5.5-2.1c-2.4-0.7-4.4-1.5-6-2.4s-3-2-4-3.5c-1-1.4-1.5-3.3-1.5-5.5c0-2,0.5-3.7,1.6-5.3
		c1.1-1.5,2.6-2.7,4.5-3.6c1.9-0.9,4.2-1.3,6.7-1.3c2.3,0,4.4,0.4,6.4,1.2s3.6,1.9,4.8,3.3c0.6,0.6,0.8,1.2,0.8,1.6
		c0,0.4-0.2,0.8-0.6,1.2c-0.4,0.4-0.8,0.5-1.2,0.5s-0.7-0.1-1-0.4c-1-1.2-2.4-2.2-4-2.9c-1.7-0.7-3.4-1.1-5.3-1.1
		c-2.7,0-5,0.6-6.7,1.8s-2.6,2.9-2.6,5c0,2.2,0.8,3.8,2.5,5c1.6,1.2,4,2.2,7.1,3.2c2.7,0.8,4.8,1.6,6.5,2.4c1.7,0.8,3.1,2,4.1,3.5
		c1.1,1.5,1.6,3.5,1.6,6c0,1.9-0.6,3.6-1.7,5.2c-1.1,1.6-2.6,2.8-4.6,3.7s-4.2,1.3-6.7,1.3C32.9,186.6,30.5,186.1,28.4,185.2z"/>
	<path class="st0" d="M85.6,147.1c0.3,0.3,0.5,0.7,0.5,1.2v23.3c0,2.7-0.7,5.2-2,7.5s-3.1,4.1-5.3,5.4c-2.2,1.3-4.7,2-7.4,2
		c-2.7,0-5.2-0.7-7.5-2c-2.2-1.3-4-3.1-5.3-5.4c-1.3-2.3-2-4.8-2-7.5v-23.3c0-0.5,0.2-0.9,0.5-1.2s0.8-0.5,1.3-0.5s0.8,0.2,1.2,0.5
		c0.3,0.3,0.5,0.7,0.5,1.2v23.3c0,2.1,0.5,4,1.5,5.8s2.4,3.2,4.1,4.2c1.7,1,3.6,1.5,5.7,1.5s4-0.5,5.7-1.5s3.1-2.4,4.2-4.2
		c1-1.8,1.5-3.7,1.5-5.8v-23.3c0-0.5,0.1-0.9,0.5-1.2c0.3-0.3,0.7-0.5,1.2-0.5C84.9,146.7,85.3,146.8,85.6,147.1z"/>
	<path class="st0" d="M132.1,147.1c0.3,0.3,0.5,0.7,0.5,1.2v36c0,0.5-0.2,0.9-0.5,1.2s-0.8,0.5-1.2,0.5c-0.5,0-1-0.2-1.3-0.5
		s-0.5-0.7-0.5-1.2v-30.9l-13.2,20c-0.4,0.5-0.8,0.7-1.3,0.7h-0.1c-0.5,0-0.9-0.2-1.2-0.7l-13.2-20.1v31c0,0.5-0.2,0.9-0.5,1.2
		s-0.7,0.5-1.2,0.5s-0.9-0.2-1.2-0.5c-0.3-0.3-0.5-0.7-0.5-1.2v-36c0-0.4,0.2-0.8,0.5-1.2c0.3-0.3,0.7-0.5,1.2-0.5
		c0.3,0,0.5,0.1,0.8,0.2c0.3,0.1,0.5,0.3,0.7,0.5l14.7,22.1l14.8-22.1c0.4-0.6,0.9-0.8,1.5-0.7C131.4,146.7,131.7,146.8,132.1,147.1
		z"/>
	<path class="st0" d="M146.1,185.5c-0.3,0.3-0.8,0.5-1.2,0.5c-0.5,0-0.9-0.2-1.3-0.5s-0.5-0.7-0.5-1.3v-35.9c0-0.5,0.2-0.9,0.5-1.3
		c0.3-0.3,0.8-0.5,1.3-0.5s0.9,0.2,1.2,0.5s0.5,0.8,0.5,1.2v35.9C146.6,184.8,146.4,185.2,146.1,185.5z"/>
	<path class="st0" d="M183.4,147.1c0.3,0.3,0.5,0.7,0.5,1.2s-0.2,0.9-0.5,1.2s-0.7,0.4-1.2,0.4h-11.6v34.5c0,0.5-0.2,0.9-0.5,1.2
		s-0.8,0.5-1.2,0.5c-0.5,0-0.9-0.2-1.3-0.5s-0.5-0.7-0.5-1.2v-34.5h-11.6c-0.5,0-0.9-0.1-1.2-0.4c-0.3-0.3-0.5-0.7-0.5-1.2
		c0-0.4,0.2-0.8,0.5-1.1s0.7-0.4,1.2-0.4h26.8C182.7,146.7,183.1,146.8,183.4,147.1z"/>
</g>
<path d="M185.8,109.6H2.5c-1.4,0-2.5-1.1-2.5-2.5s1.1-2.5,2.5-2.5h183.3c1.4,0,2.5,1.1,2.5,2.5S187.2,109.6,185.8,109.6z"/>
<path d="M185.8,225.7H2.5c-1.4,0-2.5-1.1-2.5-2.5s1.1-2.5,2.5-2.5h183.3c1.4,0,2.5,1.1,2.5,2.5S187.2,225.7,185.8,225.7z"/>
<path d="M461.8,193.5L461.8,193.5c0.4,0.6,0.6,1.2,0.6,1.9l0,0l0,0c0,0.9-0.3,1.6-0.9,2.1l0,0l0,0c-0.6,0.5-1.3,0.8-2.1,0.8l0,0l0,0
	c-0.8,0-1.4-0.3-1.9-1l0,0l-24.8-31.2l-12,11.3V195l0,0c-0.1,0.8-0.4,1.5-0.9,2l0,0l0,0c-0.5,0.5-1.2,0.8-1.9,0.8l0,0l0,0
	c-0.8,0-1.5-0.3-2-0.8l0,0l0,0c-0.5-0.5-0.8-1.2-0.8-2l0,0v-56.5l0,0c0-0.8,0.3-1.5,0.8-2l0,0l0,0c0.5-0.5,1.2-0.8,2-0.8l0,0l0,0
	c0.8,0,1.5,0.3,2,0.8l0,0l0,0c0.5,0.5,0.8,1.2,0.8,2l0,0v32.2l35.8-33.8l0,0c0.5-0.6,1.2-0.9,1.9-0.9l0,0l0,0c0.7,0,1.3,0.3,1.8,0.8
	l0,0l0,0c0.5,0.5,0.8,1.1,0.8,1.8l0,0l0,0c0,0.7-0.3,1.3-0.8,1.9l0,0L437,162.2L461.8,193.5L461.8,193.5z M339.5,209.4L339.5,209.4
	c-0.7,0-1.3-0.3-1.8-0.8l0,0l0,0c-0.5-0.5-0.7-1.1-0.7-1.8l0,0l0,0c0-0.5,0.1-0.9,0.4-1.3l0,0l38.5-76.3l0,0
	c0.4-0.8,0.8-1.3,1.3-1.6l0,0l0,0c0.4-0.3,1-0.5,1.6-0.5l0,0l0,0c0.6,0,1.1,0.2,1.6,0.7l0,0l0,0c0.5,0.4,0.7,1,0.7,1.7l0,0l0,0
	c0,0.5-0.1,1.1-0.4,1.6l0,0l-38.5,76.4l0,0c-0.4,0.7-0.8,1.2-1.2,1.5l0,0l0,0C340.6,209.2,340.1,209.4,339.5,209.4L339.5,209.4
	L339.5,209.4z M287.4,198.7L287.4,198.7c-4.3,0-8-0.7-11.3-2.1l0,0l0,0c-3.3-1.4-6.5-3.6-9.5-6.6l0,0l0,0c-0.7-0.6-1.1-1.3-1.1-2.1
	l0,0l0,0c0-0.7,0.3-1.4,0.8-1.9l0,0l0,0c0.6-0.6,1.2-0.9,1.9-0.9l0,0l0,0c0.7,0,1.4,0.3,1.9,0.9l0,0l0,0c4.6,5.1,10.4,7.6,17.3,7.6
	l0,0l0,0c4.3,0,7.8-1,10.6-3l0,0l0,0c2.8-2,4.2-4.6,4.2-7.9l0,0l0,0c0-2.5-0.7-4.7-2.1-6.3l0,0l0,0c-1.4-1.7-3.2-3.1-5.4-4.1l0,0
	l0,0c-2.2-1.1-5.1-2.2-8.6-3.3l0,0l0,0c-3.8-1.1-7-2.4-9.5-3.7l0,0l0,0c-2.6-1.4-4.7-3.2-6.2-5.4l0,0l0,0c-1.6-2.3-2.4-5.2-2.4-8.6
	l0,0l0,0c0-3.1,0.8-5.9,2.5-8.3l0,0l0,0c1.7-2.4,4-4.3,7.1-5.7l0,0l0,0c3-1.4,6.5-2.1,10.5-2.1l0,0l0,0c3.6,0,7,0.6,10.1,1.8l0,0
	l0,0c3.2,1.2,5.7,2.9,7.6,5.2l0,0l0,0c0.9,1,1.3,1.9,1.3,2.6l0,0l0,0c0,0.6-0.3,1.3-0.9,1.8l0,0l0,0c-0.6,0.6-1.2,0.8-1.9,0.8l0,0
	l0,0c-0.6,0-1.1-0.2-1.5-0.6l0,0l0,0c-1.6-1.9-3.7-3.4-6.4-4.6l0,0l0,0c-2.7-1.2-5.4-1.8-8.3-1.8l0,0l0,0c-4.3,0-7.8,1-10.5,2.9l0,0
	l0,0c-2.7,1.9-4.1,4.5-4.1,7.8l0,0l0,0c0,3.4,1.3,6.1,3.9,7.9l0,0l0,0c2.6,1.8,6.3,3.5,11.2,5l0,0l0,0c4.2,1.2,7.6,2.5,10.3,3.8l0,0
	l0,0c2.7,1.3,4.8,3.1,6.5,5.5l0,0l0,0c1.7,2.4,2.5,5.5,2.5,9.4l0,0l0,0c0,3-0.9,5.7-2.6,8.2l0,0l0,0c-1.7,2.5-4.2,4.4-7.3,5.8l0,0
	l0,0C294.9,198,291.4,198.7,287.4,198.7L287.4,198.7L287.4,198.7z"/>
</svg>
