<?xml version="1.0" encoding="utf-8"?>
<!-- Generator: Adobe Illustrator 21.0.0, SVG Export Plug-In . SVG Version: 6.00 Build 0)  -->
<svg version="1.1" id="Layer_1" xmlns="http://www.w3.org/2000/svg" xmlns:xlink="http://www.w3.org/1999/xlink" x="0px" y="0px"
	 viewBox="0 0 1920 1080" style="enable-background:new 0 0 1920 1080;" xml:space="preserve">
<style type="text/css">
	.st0{fill:#2A76DD;}
	.st1{fill:#FFFFFF;}
	.st2{opacity:0.21;}
	.st3{opacity:0.19;}
	.st4{opacity:0.17;}
</style>
<g>
	<rect class="st0" width="1920" height="1080"/>
</g>
<g>
	<g>
		<path class="st1" d="M1437.4,837.4c-8.7,36.3-51,63.7-93.9,61l-20.5-1.3c-43-2.7-108,19.9-144.6,39.5l-95.4,50.9
			c-36.6,19.5-62.5,5.4-57.7-31.4l0.2-1.3c4.9-36.8-26.3-78-69.3-80.7l-355.9-22.3c-42.9-2.7-81.5-35.1-85.7-71.9l-60-517.1
			c-4.2-36.9,27.6-68.2,70.6-69.8L1501,159c43-1.5,71.1,26.9,62.3,63.2L1437.4,837.4z"/>
	</g>
	<g class="st2">
		<path class="st1" d="M1485.7,863.8c-0.5,0-0.9,0-1.4-0.1c-3.8-0.5-6.4-3.5-5.8-6.8l97.6-545.6c0.6-3.2,4.1-5.5,7.9-5
			c3.8,0.5,6.3,3.5,5.8,6.8l-97.6,545.6C1491.7,861.6,1488.9,863.7,1485.7,863.8z"/>
	</g>
	<g>
		<path class="st1" d="M559.4,152.9c-3.6,0-6.7-2.4-6.9-5.6c-0.2-3.3,2.7-6.1,6.5-6.3l752.1-35.6c4-0.1,7.1,2.3,7.3,5.6
			c0.2,3.3-2.7,6.1-6.5,6.3l-752.1,35.6C559.6,152.9,559.5,152.9,559.4,152.9z"/>
	</g>
	<g>
		<g>
			<polygon class="st1" points="380.2,486.9 433.7,658.6 234,612.6 			"/>
		</g>
		<g class="st3">
			<polygon class="st1" points="369.7,725.6 433.6,791.2 335.6,806.1 			"/>
		</g>
	</g>
	<g class="st4">
		<path class="st1" d="M1408.9,100.8c0,9.8-9.3,17.8-20.7,17.8c-11.4,0-20.7-8-20.7-17.8c0-9.8,9.3-17.8,20.7-17.8
			C1399.6,83,1408.9,91,1408.9,100.8z"/>
	</g>
	<g class="st4">
		<path class="st1" d="M1491.8,100.8c0,9.8-9.3,17.8-20.7,17.8c-11.4,0-20.7-8-20.7-17.8c0-9.8,9.3-17.8,20.7-17.8
			C1482.5,83,1491.8,91,1491.8,100.8z"/>
	</g>
</g>
<g>
	<path class="st0" d="M600,262.9c11.5,3.5,19.5,14,19.5,26.5c0,15-12.5,27.6-28.1,27.6c-15,0-27.5-12.5-27.5-27.6c0-7.5,3-14,5.5-19
		l24.1-45.6h16L600,262.9z M677.2,262.9c11.5,3.5,19.5,14,19.5,26.5c0,15-12.5,27.6-28.1,27.6c-15,0-27.6-12.5-27.6-27.6
		c0-7.5,3-14,5.5-19l24-45.6h16L677.2,262.9z"/>
</g>
<g>
	<path class="st0" d="M1190.8,801c-11.5-3.5-19.5-14-19.5-26.6c0-15,12.5-27.5,28.1-27.5c15,0,27.5,12.5,27.5,27.5
		c0,7.5-3,14-5.5,19l-24,45.6h-16L1190.8,801z M1267.9,801c-11.5-3.5-19.5-14-19.5-26.6c0-15,12.5-27.5,28.1-27.5
		c15,0,27.5,12.5,27.5,27.5c0,7.5-3,14-5.5,19l-24,45.6h-16L1267.9,801z"/>
</g>
</svg>
