<?xml version="1.0" encoding="utf-8"?>
<!-- Generator: Adobe Illustrator 21.0.0, SVG Export Plug-In . SVG Version: 6.00 Build 0)  -->
<svg version="1.1" xmlns="http://www.w3.org/2000/svg" xmlns:xlink="http://www.w3.org/1999/xlink" x="0px" y="0px"
	 viewBox="0 0 595.3 841.9" style="enable-background:new 0 0 595.3 841.9;" xml:space="preserve">
<style type="text/css">
	.st0{fill:#FFFFFF;}
	.st1{clip-path:url(#XMLID_3_);}
	.st2{fill:#13110C;}
	.st3{fill:#D4D1D1;}
	.st4{fill:#26231F;}
	.st5{opacity:0.46;fill:url(#SVGID_1_);}
</style>
<g id="background">
	
		<rect id="XMLID_1_" x="-8.5" y="-8.5" transform="matrix(-1.836970e-16 1 -1 -1.836970e-16 718.585 123.305)" class="st0" width="612.3" height="858.9"/>
</g>
<g id="object">
	<g>
		<defs>
			
				<rect id="XMLID_27_" x="-8.5" y="-8.5" transform="matrix(-1.836970e-16 1 -1 -1.836970e-16 718.585 123.305)" width="612.3" height="858.9"/>
		</defs>
		<clipPath id="XMLID_3_">
			<use xlink:href="#XMLID_27_"  style="overflow:visible;"/>
		</clipPath>
		<g class="st1">
			<g>
				<rect x="638" y="352.2" class="st2" width="16.6" height="17"/>
				<rect x="694.2" y="324.7" class="st2" width="11.3" height="11.6"/>
				<rect x="693.2" y="396.8" class="st2" width="23.6" height="24.3"/>
				<path class="st2" d="M702.2,492h-33v34h33V492z M694,517.5h-16.5v-17H694V517.5z"/>
				<rect x="677.5" y="500.5" class="st0" width="16.5" height="17"/>
			</g>
			<g>
				<g>
					<g>
						
							<rect x="670.7" y="668.5" transform="matrix(6.123234e-17 -1 1 6.123234e-17 2.5467 1358.3369)" class="st2" width="19.4" height="18.9"/>
						
							<rect x="636.8" y="699.5" transform="matrix(6.123234e-17 -1 1 6.123234e-17 -62.5434 1351.0151)" class="st2" width="14.9" height="14.5"/>
						<g>
							<rect x="671" y="697.9" class="st2" width="28.9" height="29.8"/>
							<rect x="699.9" y="697.9" class="st2" width="28.9" height="29.8"/>
							<rect x="699.9" y="668.2" class="st2" width="28.9" height="29.8"/>
						</g>
					</g>
					
						<rect x="615" y="646.2" transform="matrix(6.123234e-17 -1 1 6.123234e-17 -30.8734 1283.181)" class="st2" width="22.3" height="21.7"/>
					
						<rect x="600.2" y="613.7" transform="matrix(6.123234e-17 -1 1 6.123234e-17 -13.4072 1223.3762)" class="st2" width="9.7" height="9.4"/>
					<g>
						
							<rect x="671" y="621.7" transform="matrix(6.123234e-17 -1 1 6.123234e-17 49.7297 1318.9554)" class="st2" width="26.6" height="25.9"/>
						
							<rect x="637.4" y="569.6" transform="matrix(6.123234e-17 -1 1 6.123234e-17 67.9618 1218.3579)" class="st2" width="11.5" height="11.2"/>
					</g>
				</g>
			</g>
		</g>
		<g class="st1">
			<g>
				<g>
					<ellipse class="st2" cx="-6" cy="282" rx="3.1" ry="3.2"/>
					<ellipse class="st2" cx="-29.6" cy="282" rx="3.1" ry="3.2"/>
					<ellipse class="st2" cx="-53.3" cy="282" rx="3.1" ry="3.2"/>
					<ellipse class="st2" cx="-76.9" cy="282" rx="3.1" ry="3.2"/>
					<ellipse class="st2" cx="-100.5" cy="282" rx="3.1" ry="3.2"/>
					<ellipse class="st2" cx="-124.1" cy="282" rx="3.1" ry="3.2"/>
				</g>
				<g>
					<ellipse class="st2" cx="-6" cy="246.4" rx="3.1" ry="3.2"/>
					<ellipse class="st2" cx="-29.6" cy="246.4" rx="3.1" ry="3.2"/>
					<ellipse class="st2" cx="-53.3" cy="246.4" rx="3.1" ry="3.2"/>
					<ellipse class="st2" cx="-76.9" cy="246.4" rx="3.1" ry="3.2"/>
					<ellipse class="st2" cx="-100.5" cy="246.4" rx="3.1" ry="3.2"/>
					<ellipse class="st2" cx="-124.1" cy="246.4" rx="3.1" ry="3.2"/>
				</g>
				<g>
					<ellipse class="st2" cx="-6" cy="210.7" rx="3.1" ry="3.2"/>
					<ellipse class="st2" cx="-29.6" cy="210.7" rx="3.1" ry="3.2"/>
					<ellipse class="st2" cx="-53.3" cy="210.7" rx="3.1" ry="3.2"/>
					<ellipse class="st2" cx="-76.9" cy="210.7" rx="3.1" ry="3.2"/>
					<ellipse class="st2" cx="-100.5" cy="210.7" rx="3.1" ry="3.2"/>
					<ellipse class="st2" cx="-124.1" cy="210.7" rx="3.1" ry="3.2"/>
				</g>
			</g>
			<g>
				<path class="st2" d="M-134.5,677.2V297.8l325.9,189.7L-134.5,677.2z M-132.3,301.5v372l319.5-186L-132.3,301.5z"/>
			</g>
			<g>
				<polygon class="st2" points="-83.1,646.1 -133.4,616.8 -133.4,675.3 				"/>
			</g>
			<g>
				<polygon points="-133.9,519.7 237.3,302.9 238.4,304.7 -132.9,521.5 				"/>
			</g>
			<g>
				<polygon class="st2" points="-44.3,468.5 -42.8,467 54.6,565.1 53.1,566.7 				"/>
			</g>
			<g>
				<polygon class="st2" points="-70,484.7 -68.4,483.2 28.4,580.8 26.9,582.3 				"/>
			</g>
			<g>
				<polygon class="st2" points="-96.7,498.7 -95.2,497.2 2.2,595.3 0.7,596.9 				"/>
			</g>
			<g>
				<path class="st2" d="M229.2,297.1l-88.1-88.8c24.3-24.5,63.8-24.5,88.1,0C204.9,232.8,204.9,272.6,229.2,297.1z"/>
				<g>
					<path class="st3" d="M229.2,297.1c-24.3-24.5-24.3-64.3,0-88.8C253.5,232.8,253.5,272.6,229.2,297.1z"/>
					<path class="st4" d="M210.2,252.7c0-16.3,6.1-32.6,18.4-45l0.6-0.6l0.6,0.6c24.6,24.8,24.6,65.2,0,90l-0.6,0.6l-0.6-0.6
						C216.3,285.3,210.2,269,210.2,252.7z M229.2,209.4c-23.2,24-23.2,62.5,0,86.5C252.4,271.9,252.4,233.4,229.2,209.4z"/>
				</g>
			</g>
			<g>
				<g>
					<g>
						<path class="st2" d="M494.6,174.5l0,0.8l-217.2,4.3l0-0.8c0-0.3,0-0.5,0-0.8l0-0.9l0.4-0.2l163.9-95.4l0.4,0.3
							C474.2,101.5,493.9,136.2,494.6,174.5z M279,177.9l213.9-4.2c-1-37.3-20.1-71-51.3-90.5L279,177.9L279,177.9L279,177.9z"/>
					</g>
					<g>
						<path class="st3" d="M278.2,177.5l163.5-95.1c-16.8-10.4-36.7-16.2-57.8-15.8C324.8,67.7,277.7,117.2,278.2,177.5z"/>
						<path class="st2" d="M279,176.1l161.1-93.7c-17-10.2-36.4-15.4-56.2-15c-28.3,0.6-54.8,12.3-74.6,33.1
							C289.9,120.8,279.1,147.6,279,176.1z M443.2,82.4l-1.1,0.7l-164.7,95.9l0-1.4c-0.2-29.4,10.7-57.1,30.7-78.2
							c20.1-21.1,47-33,75.8-33.6c20.6-0.4,40.7,5.1,58.3,16L443.2,82.4z"/>
					</g>
				</g>
				<ellipse class="st2" cx="376.8" cy="178.9" rx="19.5" ry="19.7"/>
			</g>
			<g>
				<polygon class="st4" points="280.8,345.9 111.5,442.8 112.7,444.9 282.6,347.6 				"/>
			</g>
			<g>
				<polygon class="st4" points="64.7,133.8 66.4,132.1 281.6,346.7 279.9,348.4 				"/>
			</g>
			
				<linearGradient id="SVGID_1_" gradientUnits="userSpaceOnUse" x1="218.4718" y1="676.4835" x2="354.2452" y2="754.8724" gradientTransform="matrix(6.123234e-17 1 -1 6.123234e-17 718.585 123.305)">
				<stop  offset="0.1172" style="stop-color:#FFFFFF"/>
				<stop  offset="1" style="stop-color:#26231F"/>
			</linearGradient>
			<polygon class="st5" points="188.9,486.1 -134.9,300.1 -136.5,252.7 193.5,453.6 			"/>
			<path class="st2" d="M98,113.8l-231.4,0c0,0,33.5,57.8,115.7,57.8C44.6,171.6,77.5,139.4,98,113.8z"/>
			<g>
				<rect x="110.9" y="607.2" class="st2" width="20.8" height="21"/>
				<rect x="77.3" y="678.3" class="st2" width="14.2" height="14.3"/>
				<rect x="165.4" y="677.1" class="st2" width="29.7" height="29.9"/>
				<path class="st2" d="M323.2,688.5v-41.9h-41.5v41.9H323.2z M292,678v-20.9h20.8V678H292z"/>
				<rect x="292" y="657.1" class="st0" width="20.8" height="20.9"/>
			</g>
			<g>
				<g>
					<g>
						<polygon class="st2" points="212.6,528 227.7,508.7 212.6,489.3 227.7,469.9 212.6,450.5 227.7,431.2 212.9,413.8 
							213.9,412.9 229.4,431.2 214.2,450.5 229.4,469.9 214.2,489.3 229.4,508.7 214.2,528 229.4,547.4 214.2,566.8 229.4,586.2 
							214.2,605.5 229.4,624.9 213.9,644.7 212.9,643.9 227.7,624.9 212.6,605.5 227.7,586.2 212.6,566.8 227.7,547.4 						"/>
					</g>
				</g>
				<g>
					<g>
						<polygon class="st2" points="247.4,528 262.5,508.7 247.4,489.3 262.5,469.9 247.4,450.5 262.5,431.2 247.7,413.8 
							248.7,412.9 264.2,431.2 249,450.5 264.2,469.9 249,489.3 264.2,508.7 249,528 264.2,547.4 249,566.8 264.2,586.2 249,605.5 
							264.2,624.9 248.7,644.7 247.7,643.9 262.5,624.9 247.4,605.5 262.5,586.2 247.4,566.8 262.5,547.4 						"/>
					</g>
				</g>
			</g>
		</g>
	</g>
</g>
</svg>
