<?xml version="1.0" encoding="utf-8"?>
<!-- Generator: Adobe Illustrator 21.0.0, SVG Export Plug-In . SVG Version: 6.00 Build 0)  -->
<svg version="1.1" id="Layer_1" xmlns="http://www.w3.org/2000/svg" xmlns:xlink="http://www.w3.org/1999/xlink" x="0px" y="0px"
	 viewBox="0 0 671.1 306.5" style="enable-background:new 0 0 671.1 306.5;" xml:space="preserve">
<g>
	<path d="M130,92c1.1,6.7,6.7,9.7,14.8,9.7c6.8,0,11-2.1,11-5.4c0-2.5-2.4-4.6-7.5-5.4l-15.6-2.7c-13.4-2.2-22.6-9.7-22.6-23.2
		c0-16.2,13.9-25.8,34.4-25.8c16.4,0,35,6.4,36.1,26.8h-22.9c-0.5-5.9-5.9-8.6-13.1-8.6c-6.7,0-9.7,2.5-9.7,5.6c0,2.5,1.9,4.9,8,6.1
		l14.5,2.4c14.5,2.7,24,9.7,24,23.4c0,17.8-16.1,26.1-36.1,26.1c-20.2,0-36.6-8.4-38.2-29L130,92z"/>
	<path d="M267.9,118.5h-25.8v-5.1c-6.2,4.8-12.9,7.5-21.2,7.5c-19.6,0-33-13.5-33-35.5V41.2h25.8v40.1c0,11,5.7,16.2,14.2,16.2
		c4.8,0,9.7-2.7,14.2-7.6V41.2h25.8V118.5z"/>
	<path d="M407.4,74.4v44.1h-26v-40c0-11-5.3-16.2-13.9-16.2c-4,0-8,1.8-11.8,6.4c0.2,1.9,0.3,3.8,0.3,5.7v44.1h-25.8v-40
		c0-11-5.4-16.2-13.9-16.2c-4,0-7.8,1.9-11.6,6.8v49.4h-25.8V41.2h25.8v4.6c5.3-4.5,10.7-7,19.3-7c9.7,0,18,3.7,23.7,10.4
		c8.1-7.2,15.9-10.4,27.4-10.4C393.7,38.9,407.4,52.4,407.4,74.4z"/>
	<path d="M416.2,14.7c0-8.4,6.7-14.7,15.1-14.7c8.3,0,15.1,6.2,15.1,14.7c0,8.3-6.8,14.5-15.1,14.5
		C422.9,29.1,416.2,22.9,416.2,14.7z M444.4,118.5h-25.8V41.2h25.8V118.5z"/>
	<path d="M521.1,117c-10,3.2-15.8,3.8-23.4,3.8c-18.6,0-31.1-13.7-31.1-34.6V63.4h-15.1V41.2h15.1V15h25.8v26.3h26.3v22.1h-26.3
		v22.1c0,7.8,4.5,11.6,12.1,11.6c3.7,0,8-0.8,13.7-1.9L521.1,117z"/>
</g>
<g>
	<path d="M54.5,269.5v32H0V62.6h54.5v136.9l56.9-61.2h64.9l-61.9,66.6l67.3,96.5h-65.3l-39-56.5L54.5,269.5z"/>
	<path d="M335.1,301.4h-54.5v-9.1c-12.1,7.7-26.9,12.4-44.7,12.4c-44.1,0-81.1-36.7-81.1-85.1c0-48.8,37-85.1,81.1-85.1
		c17.8,0,32.6,4.7,44.7,12.4v-8.7h54.5V301.4z M280.6,244.9v-50.5c-10.1-11.8-21.9-15.5-34-15.5c-22.2,0-38.4,18.2-38.4,40.7
		c0,22.5,16.1,40.4,38.4,40.4C258.7,260,270.5,256.7,280.6,244.9z"/>
	<path d="M521.1,208.2v93.2h-54.8V217c0-23.2-11.8-34.3-29.6-34.3c-10.1,0-20.9,5.7-30.3,16.5v102.3h-54.5V138.3h54.5v11.1
		c13.1-10.4,27.6-16.1,45.1-16.1C492.8,133.2,521.1,161.8,521.1,208.2z"/>
	<path d="M671.1,298.4c-21.2,6.7-33.3,8.1-49.5,8.1c-39.4,0-65.6-28.9-65.6-73V185h-32v-46.8h32V82.8h54.5v55.5h55.5V185h-55.5v46.8
		c0,16.5,9.4,24.6,25.6,24.6c7.7,0,16.8-1.7,28.9-4L671.1,298.4z"/>
</g>
</svg>
